<?xml version="1.0" encoding="utf-8"?>
<!-- Generator: Adobe Illustrator 19.2.0, SVG Export Plug-In . SVG Version: 6.00 Build 0)  -->
<svg version="1.1" id="Layer_1" xmlns="http://www.w3.org/2000/svg" xmlns:xlink="http://www.w3.org/1999/xlink" x="0px" y="0px"
	 viewBox="0 0 2340.2 1818.2" style="enable-background:new 0 0 2340.2 1818.2;" xml:space="preserve">
<style type="text/css">
	.st0{fill:#FFFFFF;fill-opacity:0;}
	.st1{fill:url(#SVGID_1_);}
	.st2{fill:#9EA9C2;}
	.st3{fill:none;stroke:#9EA9C2;stroke-width:2;stroke-linejoin:round;stroke-miterlimit:10;}
	.st4{clip-path:url(#SVGID_3_);fill:#9EA9C2;}
	.st5{clip-path:url(#SVGID_5_);fill:none;stroke:#9EA9C2;stroke-width:2;stroke-linejoin:round;stroke-miterlimit:10;}
	.st6{clip-path:url(#SVGID_7_);fill:url(#SVGID_8_);}
	.st7{clip-path:url(#SVGID_10_);fill:url(#SVGID_11_);}
	.st8{clip-path:url(#SVGID_13_);fill:#9EA9C2;}
	.st9{clip-path:url(#SVGID_15_);fill:none;stroke:#9EA9C2;stroke-width:2;stroke-linejoin:round;stroke-miterlimit:10;}
	.st10{clip-path:url(#SVGID_17_);}
	.st11{enable-background:new    ;}
	.st12{fill:#C00000;}
	.st13{clip-path:url(#SVGID_19_);}
	.st14{fill:none;stroke:#C00000;stroke-width:3.8357;stroke-linejoin:round;stroke-miterlimit:10;}
	.st15{clip-path:url(#SVGID_21_);}
	.st16{clip-path:url(#SVGID_23_);}
	.st17{fill:none;stroke:#000000;stroke-width:3.8357;stroke-linejoin:round;stroke-miterlimit:10;}
	.st18{clip-path:url(#SVGID_25_);}
	.st19{clip-path:url(#SVGID_27_);}
	.st20{clip-path:url(#SVGID_29_);}
	.st21{clip-path:url(#SVGID_31_);}
	.st22{clip-path:url(#SVGID_33_);}
	.st23{clip-path:url(#SVGID_35_);}
	.st24{clip-path:url(#SVGID_37_);}
	.st25{clip-path:url(#SVGID_39_);}
	.st26{clip-path:url(#SVGID_41_);}
	.st27{clip-path:url(#SVGID_43_);}
	.st28{clip-path:url(#SVGID_45_);}
	.st29{clip-path:url(#SVGID_47_);}
	.st30{clip-path:url(#SVGID_49_);}
	.st31{clip-path:url(#SVGID_51_);}
	.st32{clip-path:url(#SVGID_53_);}
	.st33{clip-path:url(#SVGID_55_);}
	.st34{clip-path:url(#SVGID_57_);}
	.st35{clip-path:url(#SVGID_59_);}
	.st36{clip-path:url(#SVGID_61_);}
	.st37{clip-path:url(#SVGID_63_);}
	.st38{clip-path:url(#SVGID_65_);}
	.st39{clip-path:url(#SVGID_67_);}
	.st40{clip-path:url(#SVGID_69_);}
	.st41{clip-path:url(#SVGID_71_);}
	.st42{clip-path:url(#SVGID_73_);}
	.st43{clip-path:url(#SVGID_75_);}
	.st44{clip-path:url(#SVGID_77_);}
	.st45{clip-path:url(#SVGID_79_);}
	.st46{clip-path:url(#SVGID_81_);}
	.st47{clip-path:url(#SVGID_83_);}
	.st48{font-family:'Logobloqo2';}
	.st49{font-size:134.25px;}
	.st50{clip-path:url(#SVGID_85_);}
	.st51{clip-path:url(#SVGID_87_);}
	.st52{clip-path:url(#SVGID_89_);}
	.st53{fill:none;stroke:#000000;stroke-width:3.8364;stroke-linejoin:round;stroke-miterlimit:10;}
	.st54{clip-path:url(#SVGID_91_);}
	.st55{clip-path:url(#SVGID_93_);}
	.st56{clip-path:url(#SVGID_95_);}
	.st57{clip-path:url(#SVGID_97_);}
	.st58{clip-path:url(#SVGID_99_);}
	.st59{clip-path:url(#SVGID_101_);}
	.st60{clip-path:url(#SVGID_107_);}
	.st61{clip-path:url(#SVGID_109_);}
	.st62{fill:none;stroke:#C00000;stroke-width:3.8364;stroke-linejoin:round;stroke-miterlimit:10;}
	.st63{clip-path:url(#SVGID_111_);}
	.st64{clip-path:url(#SVGID_113_);}
	.st65{clip-path:url(#SVGID_115_);}
	.st66{clip-path:url(#SVGID_117_);}
	.st67{clip-path:url(#SVGID_119_);}
	.st68{clip-path:url(#SVGID_121_);}
	.st69{clip-path:url(#SVGID_123_);}
	.st70{clip-path:url(#SVGID_125_);}
	.st71{clip-path:url(#SVGID_127_);}
	.st72{clip-path:url(#SVGID_129_);}
	.st73{clip-path:url(#SVGID_131_);}
	.st74{clip-path:url(#SVGID_133_);}
	.st75{clip-path:url(#SVGID_135_);}
	.st76{font-size:134.27px;}
	.st77{clip-path:url(#SVGID_137_);}
	.st78{fill:none;stroke:#000000;stroke-width:8;stroke-linejoin:round;stroke-miterlimit:10;}
	.st79{clip-path:url(#SVGID_139_);fill:#FFFFFF;}
	.st80{clip-path:url(#SVGID_141_);fill:none;stroke:#FFFFFF;stroke-width:10;stroke-linejoin:round;stroke-miterlimit:10;}
	.st81{clip-path:url(#SVGID_143_);}
	.st82{fill:none;}
	.st83{fill:#FFFFFF;}
	.st84{fill:none;stroke:#000000;stroke-width:8;stroke-linecap:round;stroke-linejoin:round;stroke-miterlimit:10;}
	.st85{clip-path:url(#SVGID_157_);}
</style>
<path class="st0" d="M201.3,1205.2c0-40.2,0-80.4,0-120.6c387.2,0,774.4,0,1161.8,0c0,102.7,0,205.5,0,308.5
	c-387.1,0-774.4,0-1161.8,0c0-47.3,0-94.8,0-142.3c15.3,8.6,31.9,13.2,49,16.8c23.8,4.9,47.9,3.2,71.9,3.5c10.1,0.1,20-1.4,29.9-3.1
	c17.1-3.1,33.7-7.9,49.3-16.1c5.9,4.2,12.9,5.6,19.1,8.8c8.5,4.4,17.5,6.8,26.9,8.5c23.5,4.1,47.2,4.6,70.9,3.6
	c19.1-0.8,38.1-3.2,56.6-8.8c9.4-2.8,17.9-7.4,24.6-10c68.4,25.9,134.3,26.1,200.1,0.8c66.9,24.8,133.6,26.5,201.6-2
	c13.7,5.6,28.8,11.8,45.2,14.8c23.9,4.4,47.9,3.4,71.9,3.5c10.4,0.1,20.6-1.3,30.8-3.2c17.3-3.2,34.4-7.4,49.4-15.8
	c26.1,12.6,52.9,18.8,80.9,18.9c27.4,0.1,55.2,2.5,82.2-6.6c0.4-15.2,0.9-29.2-0.3-44.2c-57,14-111.1,11.2-162.5-14.2
	c-67.1,30.8-133.7,30.6-200.2-0.8c-15.2,10.1-32.2,14.9-49.5,18.3c-23,4.6-46.1,6.4-69.7,4c-22-2.3-43.2-6.4-63.4-15.5
	c-5.8-2.6-11.7-5.1-18.4-3.9c-66.5,29.6-132.6,29.3-198.5-2c-65.9,30.5-131.8,30.3-198.3-0.3c-3.7,0.7-7.3,3.1-11,5
	c-7.9,4.1-16.1,7.1-24.7,9.2c-27.3,6.8-54.7,10.4-83,7.4c-23.2-2.4-45.6-7.1-67-16.3C210,1209.3,206.4,1205.7,201.3,1205.2z"/>
<rect x="1073.7" y="1222.7" width="44.3" height="12.7"/>
<linearGradient id="SVGID_1_" gradientUnits="userSpaceOnUse" x1="471.1525" y1="4655.3945" x2="471.1525" y2="1036.3943" gradientTransform="matrix(1 0 0 -1 0 2270.5886)">
	<stop  offset="0" style="stop-color:#000F2E"/>
	<stop  offset="2.500000e-002" style="stop-color:#000F2E"/>
	<stop  offset="5.500000e-002" style="stop-color:#11214F"/>
	<stop  offset="0.155" style="stop-color:#9EA9C2"/>
	<stop  offset="0.255" style="stop-color:#FFFFFF"/>
	<stop  offset="0.5" style="stop-color:#FFFFFF"/>
	<stop  offset="0.745" style="stop-color:#FFFFFF"/>
	<stop  offset="0.845" style="stop-color:#9EA9C2"/>
	<stop  offset="0.945" style="stop-color:#11214F"/>
	<stop  offset="0.975" style="stop-color:#000F2E"/>
	<stop  offset="1" style="stop-color:#000F2E"/>
</linearGradient>
<path class="st1" d="M500.4,222.5c-29.2,15.3-60.7,22.4-94.4,21.1c-2.2,0-4.5,0-6.7-0.1l-86.9,990.7h317.4L539.5,204.5
	C527.4,212,514.3,218,500.4,222.5z"/>
<rect x="1214.1" y="941.5" class="st2" width="120.6" height="285.7"/>
<rect x="1214.1" y="941.5" class="st3" width="120.6" height="285.7"/>
<rect x="1118.8" y="1132" class="st2" width="215.9" height="95.2"/>
<rect x="1118.8" y="1132" class="st3" width="215.9" height="95.2"/>
<path class="st2" d="M1320.8,1152.3c-203.9,151.5-466.6,66.2-586.9-190.6C613.6,705,681.4,374.1,885.2,222.6
	c171.9-127.7,391-89.1,528.5,93.1l-80.8,96.7c-111.4-173.1-304.7-190.2-431.7-38.3s-139.6,415.4-28.1,588.5
	c99.6,154.8,267.3,187.2,394.6,76.3L1320.8,1152.3z"/>
<path class="st3" d="M1320.8,1152.3c-203.9,151.5-466.6,66.2-586.9-190.6C613.6,705,681.4,374.1,885.2,222.6
	c171.9-127.7,391-89.1,528.5,93.1l-80.8,96.7c-111.4-173.1-304.7-190.2-431.7-38.3s-139.6,415.4-28.1,588.5
	c99.6,154.8,267.3,187.2,394.6,76.3L1320.8,1152.3z"/>
<g>
	<g>
		<defs>
			<polyline id="SVGID_2_" points="-801.6,-753.7 3229.7,-753.7 3229.7,2269.6 -801.6,2269.6 			"/>
		</defs>
		<clipPath id="SVGID_3_">
			<use xlink:href="#SVGID_2_"  style="overflow:visible;"/>
		</clipPath>
		<rect x="1091.9" y="884.4" class="st4" width="725.4" height="120.6"/>
	</g>
</g>
<g>
	<g>
		<defs>
			<polyline id="SVGID_4_" points="-801.6,-753.7 3229.7,-753.7 3229.7,2269.6 -801.6,2269.6 			"/>
		</defs>
		<clipPath id="SVGID_5_">
			<use xlink:href="#SVGID_4_"  style="overflow:visible;"/>
		</clipPath>
		<rect x="1091.9" y="884.4" class="st5" width="725.4" height="120.6"/>
	</g>
</g>
<path class="st2" d="M1436.6,592.7c-8.2-236.5,159.2-435.6,373.8-444.6s395.2,175.4,403.4,411.9s-159.2,435.6-373.8,444.6
	c-7.6,0.3-15.3,0.4-22.9,0.2l2.3-120.5c148.2,3.7,270.9-131.2,274.1-301.3S1979.2,272,1831,268.3s-270.9,131.2-274.1,301.3
	c-0.1,6-0.1,12,0.1,17.9L1436.6,592.7z"/>
<path class="st3" d="M1436.6,592.7c-8.2-236.5,159.2-435.6,373.8-444.6s395.2,175.4,403.4,411.9s-159.2,435.6-373.8,444.6
	c-7.6,0.3-15.3,0.4-22.9,0.2l2.3-120.5c148.2,3.7,270.9-131.2,274.1-301.3S1979.2,272,1831,268.3s-270.9,131.2-274.1,301.3
	c-0.1,6-0.1,12,0.1,17.9L1436.6,592.7z"/>
<g>
	<g>
		<defs>
			<polyline id="SVGID_6_" points="-801.6,-753.7 3229.7,-753.7 3229.7,2269.6 -801.6,2269.6 			"/>
		</defs>
		<clipPath id="SVGID_7_">
			<use xlink:href="#SVGID_6_"  style="overflow:visible;"/>
		</clipPath>
		
			<linearGradient id="SVGID_8_" gradientUnits="userSpaceOnUse" x1="1496.5522" y1="2894.9946" x2="1496.5526" y2="525.1942" gradientTransform="matrix(1 0 0 -1 0 2270.5886)">
			<stop  offset="0" style="stop-color:#000F2E"/>
			<stop  offset="1.665000e-003" style="stop-color:#000F2E"/>
			<stop  offset="8.500000e-002" style="stop-color:#11214F"/>
			<stop  offset="0.31" style="stop-color:#9EA9C2"/>
			<stop  offset="0.5" style="stop-color:#9EA9C2"/>
			<stop  offset="0.69" style="stop-color:#9EA9C2"/>
			<stop  offset="0.915" style="stop-color:#11214F"/>
			<stop  offset="0.9983" style="stop-color:#000F2E"/>
			<stop  offset="1" style="stop-color:#000F2E"/>
		</linearGradient>
		<polygon class="st6" points="1556.9,560.5 1556.9,1679.2 1496.6,1745.4 1436.3,1679.2 1436.3,560.5 		"/>
	</g>
</g>
<g>
	<g>
		<defs>
			<polyline id="SVGID_9_" points="-801.6,-753.7 3229.7,-753.7 3229.7,2269.6 -801.6,2269.6 			"/>
		</defs>
		<clipPath id="SVGID_10_">
			<use xlink:href="#SVGID_9_"  style="overflow:visible;"/>
		</clipPath>
		
			<linearGradient id="SVGID_11_" gradientUnits="userSpaceOnUse" x1="1496.5522" y1="2897.9944" x2="1496.5526" y2="524.1945" gradientTransform="matrix(1 0 0 -1 0 2270.5886)">
			<stop  offset="0" style="stop-color:#000F2E"/>
			<stop  offset="8.500000e-002" style="stop-color:#11214F"/>
			<stop  offset="0.31" style="stop-color:#9EA9C2"/>
			<stop  offset="0.5" style="stop-color:#9EA9C2"/>
			<stop  offset="0.69" style="stop-color:#9EA9C2"/>
			<stop  offset="0.915" style="stop-color:#11214F"/>
			<stop  offset="1" style="stop-color:#000F2E"/>
		</linearGradient>
		<path class="st7" d="M1436.3,561.5l1-1v1118.7l-0.3-0.7l60.3,66.2h-1.5l60.3-66.2l-0.3,0.7V560.5l1,1H1436.3z M1556.9,559.5
			c0.6,0,1,0.4,1,1v1118.7c0,0.2-0.1,0.5-0.3,0.7l-60.3,66.2c-0.2,0.2-0.4,0.3-0.7,0.3s-0.6-0.1-0.7-0.3l-60.3-66.2
			c-0.2-0.2-0.3-0.4-0.3-0.7V560.5c0-0.6,0.5-1,1-1H1556.9z"/>
	</g>
</g>
<g>
	<g>
		<defs>
			<polyline id="SVGID_12_" points="-801.6,-753.7 3229.7,-753.7 3229.7,2269.6 -801.6,2269.6 			"/>
		</defs>
		<clipPath id="SVGID_13_">
			<use xlink:href="#SVGID_12_"  style="overflow:visible;"/>
		</clipPath>
		<rect x="1091.9" y="884.2" class="st8" width="788.9" height="95.2"/>
	</g>
</g>
<g>
	<g>
		<defs>
			<polyline id="SVGID_14_" points="-801.6,-753.7 3229.7,-753.7 3229.7,2269.6 -801.6,2269.6 			"/>
		</defs>
		<clipPath id="SVGID_15_">
			<use xlink:href="#SVGID_14_"  style="overflow:visible;"/>
		</clipPath>
		<rect x="1091.9" y="884.2" class="st9" width="788.9" height="95.2"/>
	</g>
</g>
<g>
	<g>
		<defs>
			<rect id="SVGID_16_" x="-809.6" y="-753.7" width="4031.3" height="3023.3"/>
		</defs>
		<clipPath id="SVGID_17_">
			<use xlink:href="#SVGID_16_"  style="overflow:visible;"/>
		</clipPath>
		<g class="st10">
			<g class="st11">
				<path class="st12" d="M345.7,1385.6c0-14.2,2.7-23.9,8.1-29.2c2.5-2.5,5.1-3.7,7.7-3.7h0.5c-2.1,14.6-3.2,26.4-3.2,35.3
					c0,9,0.8,18.6,2.4,29c-0.4,0-0.7,0.1-1.1,0.1c-2.2,0-4.5-1-6.7-3.1C348.2,1409.2,345.7,1399.7,345.7,1385.6z M363.4,1336.4
					c0.1,0.5,0.1,0.9,0.1,1.4c0,1.1-0.3,2.2-0.9,3.2c-0.5,0.8-1.2,1.4-2,1.9l-8.8,6.9c-1.1-1.7-1.7-3.8-1.7-6.2c0-0.5,0-1.1,0.1-1.6
					c0.3-3.1,1-5.7,2.3-7.6c0.9-1.4,2.1-2.3,3.8-2.6c0.4-0.1,0.9-0.1,1.3-0.1c1.1,0,2.2,0.3,3.2,1
					C362.2,1333.5,363.1,1334.8,363.4,1336.4z"/>
			</g>
		</g>
	</g>
	<g>
		<defs>
			<rect id="SVGID_18_" x="-809.6" y="-753.7" width="4031.3" height="3023.3"/>
		</defs>
		<clipPath id="SVGID_19_">
			<use xlink:href="#SVGID_18_"  style="overflow:visible;"/>
		</clipPath>
		<g class="st13">
			<g class="st11">
				<path class="st14" d="M345.7,1385.6c0-14.2,2.7-23.9,8.1-29.2c2.5-2.5,5.1-3.7,7.7-3.7h0.5c-2.1,14.6-3.2,26.4-3.2,35.3
					c0,9,0.8,18.6,2.4,29c-0.4,0-0.7,0.1-1.1,0.1c-2.2,0-4.5-1-6.7-3.1C348.2,1409.2,345.7,1399.7,345.7,1385.6z M363.4,1336.4
					c0.1,0.5,0.1,0.9,0.1,1.4c0,1.1-0.3,2.2-0.9,3.2c-0.5,0.8-1.2,1.4-2,1.9l-8.8,6.9c-1.1-1.7-1.7-3.8-1.7-6.2c0-0.5,0-1.1,0.1-1.6
					c0.3-3.1,1-5.7,2.3-7.6c0.9-1.4,2.1-2.3,3.8-2.6c0.4-0.1,0.9-0.1,1.3-0.1c1.1,0,2.2,0.3,3.2,1
					C362.2,1333.5,363.1,1334.8,363.4,1336.4z"/>
			</g>
		</g>
	</g>
</g>
<g>
	<g>
		<defs>
			<rect id="SVGID_20_" x="-809.6" y="-753.7" width="4031.3" height="3023.3"/>
		</defs>
		<clipPath id="SVGID_21_">
			<use xlink:href="#SVGID_20_"  style="overflow:visible;"/>
		</clipPath>
		<g class="st15">
			<g class="st11">
				<path d="M424.9,1397.1c0.2,1,0.3,2.1,0.3,3.1c0,2.3-0.5,4.6-1.4,6.9c-2.7,6.7-9,10-18.9,10c-10,0-17.7-2.3-23.2-6.8
					c-6.6-5.4-9.8-13.9-9.8-25.4c0-11.1,3.8-19.5,11.5-25.2c6-4.5,13.2-6.8,21.6-6.8c10.6,0,17.1,3.3,19.5,10c0.7,1.9,1,3.8,1,5.7
					c0,1.4-0.2,2.8-0.6,4.3c-1-1.4-2.5-2.8-4.7-4.3c-4.3-2.8-9.5-4.3-15.4-4.3c-6.4,0-11.6,2.5-15.5,7.5c-3.2,4.1-4.8,8.5-4.8,13.1
					c0,5.1,1.4,9.7,4.1,13.8c3.7,5.5,9,8.2,16.1,8.2c6.6,0,12-1.6,16.1-4.9C422.8,1400.3,424.2,1398.7,424.9,1397.1z"/>
			</g>
		</g>
	</g>
	<g>
		<defs>
			<rect id="SVGID_22_" x="-809.6" y="-753.7" width="4031.3" height="3023.3"/>
		</defs>
		<clipPath id="SVGID_23_">
			<use xlink:href="#SVGID_22_"  style="overflow:visible;"/>
		</clipPath>
		<g class="st16">
			<g class="st11">
				<path class="st17" d="M424.9,1397.1c0.2,1,0.3,2.1,0.3,3.1c0,2.3-0.5,4.6-1.4,6.9c-2.7,6.7-9,10-18.9,10
					c-10,0-17.7-2.3-23.2-6.8c-6.6-5.4-9.8-13.9-9.8-25.4c0-11.1,3.8-19.5,11.5-25.2c6-4.5,13.2-6.8,21.6-6.8
					c10.6,0,17.1,3.3,19.5,10c0.7,1.9,1,3.8,1,5.7c0,1.4-0.2,2.8-0.6,4.3c-1-1.4-2.5-2.8-4.7-4.3c-4.3-2.8-9.5-4.3-15.4-4.3
					c-6.4,0-11.6,2.5-15.5,7.5c-3.2,4.1-4.8,8.5-4.8,13.1c0,5.1,1.4,9.7,4.1,13.8c3.7,5.5,9,8.2,16.1,8.2c6.6,0,12-1.6,16.1-4.9
					C422.8,1400.3,424.2,1398.7,424.9,1397.1z"/>
			</g>
		</g>
	</g>
	<g>
		<defs>
			<rect id="SVGID_24_" x="-809.6" y="-753.7" width="4031.3" height="3023.3"/>
		</defs>
		<clipPath id="SVGID_25_">
			<use xlink:href="#SVGID_24_"  style="overflow:visible;"/>
		</clipPath>
		<g class="st18">
			<g class="st11">
				<path d="M491.6,1394.4c0.1,0.8,0.2,1.7,0.2,2.6c0,2.2-0.5,4.5-1.4,6.9c-2.8,6.7-8.9,10.9-18.4,12.5c-2.4,0.4-4.7,0.7-7,0.7
					c-4.2,0-8-0.7-11.7-2.2c-5-2-9.1-5.2-12.5-9.7c-3-4.1-5-8.8-6-14c-0.5-2.3-0.7-4.6-0.7-6.8c0-2.5,0.3-5,1-7.4
					c1.7-6.4,5.3-11.9,10.6-16.4c2.7-2.2,5.2-3.8,7.5-4.8c2.4-1.2,5.5-2.1,9-2.7c1.7-0.3,3.5-0.4,5.1-0.4c5.2,0,10,1.3,14.5,3.9
					c5.9,3.5,9.7,8.1,11.5,13.8c0.7,2.3,1,4.3,1,6.2c0,0.6,0,1.1-0.1,1.6v0.2c0,2.4-0.9,5-2.7,7.8c-3.6,5.6-10.1,8.9-19.3,10
					c-1.4,0.2-2.7,0.3-3.9,0.3c-5.4,0-9.2-1.6-11.4-4.7c-1.2-1.7-1.8-3.5-1.8-5.4v-0.5c1,1,2.5,1.7,4.7,2.2c1.2,0.3,2.4,0.4,3.7,0.4
					c3.5,0,7.3-0.9,11.6-2.8c4.4-1.9,6.6-5.2,6.6-9.7c0-0.5,0-1-0.1-1.4c-0.2-2.2-1.1-4.2-2.7-6c-1.6-1.8-3.6-3.1-6.1-4.1
					c-2-0.7-4-1-6-1c-3.7,0-7.4,1.2-10.9,3.7c-3.1,2.2-5.7,5.3-7.5,9.2c-1.7,3.6-2.6,7.3-2.6,11.1v1c0.2,4.4,1.6,8.1,4.1,11.1
					c3,3.4,7.3,5.6,12.9,6.5c1.4,0.2,2.8,0.3,4.3,0.3c5.5,0,10.9-1.7,16.3-5.2C486.8,1399.1,489.6,1396.8,491.6,1394.4z"/>
			</g>
		</g>
	</g>
	<g>
		<defs>
			<rect id="SVGID_26_" x="-809.6" y="-753.7" width="4031.3" height="3023.3"/>
		</defs>
		<clipPath id="SVGID_27_">
			<use xlink:href="#SVGID_26_"  style="overflow:visible;"/>
		</clipPath>
		<g class="st19">
			<g class="st11">
				<path class="st17" d="M491.6,1394.4c0.1,0.8,0.2,1.7,0.2,2.6c0,2.2-0.5,4.5-1.4,6.9c-2.8,6.7-8.9,10.9-18.4,12.5
					c-2.4,0.4-4.7,0.7-7,0.7c-4.2,0-8-0.7-11.7-2.2c-5-2-9.1-5.2-12.5-9.7c-3-4.1-5-8.8-6-14c-0.5-2.3-0.7-4.6-0.7-6.8
					c0-2.5,0.3-5,1-7.4c1.7-6.4,5.3-11.9,10.6-16.4c2.7-2.2,5.2-3.8,7.5-4.8c2.4-1.2,5.5-2.1,9-2.7c1.7-0.3,3.5-0.4,5.1-0.4
					c5.2,0,10,1.3,14.5,3.9c5.9,3.5,9.7,8.1,11.5,13.8c0.7,2.3,1,4.3,1,6.2c0,0.6,0,1.1-0.1,1.6v0.2c0,2.4-0.9,5-2.7,7.8
					c-3.6,5.6-10.1,8.9-19.3,10c-1.4,0.2-2.7,0.3-3.9,0.3c-5.4,0-9.2-1.6-11.4-4.7c-1.2-1.7-1.8-3.5-1.8-5.4v-0.5
					c1,1,2.5,1.7,4.7,2.2c1.2,0.3,2.4,0.4,3.7,0.4c3.5,0,7.3-0.9,11.6-2.8c4.4-1.9,6.6-5.2,6.6-9.7c0-0.5,0-1-0.1-1.4
					c-0.2-2.2-1.1-4.2-2.7-6c-1.6-1.8-3.6-3.1-6.1-4.1c-2-0.7-4-1-6-1c-3.7,0-7.4,1.2-10.9,3.7c-3.1,2.2-5.7,5.3-7.5,9.2
					c-1.7,3.6-2.6,7.3-2.6,11.1v1c0.2,4.4,1.6,8.1,4.1,11.1c3,3.4,7.3,5.6,12.9,6.5c1.4,0.2,2.8,0.3,4.3,0.3
					c5.5,0,10.9-1.7,16.3-5.2C486.8,1399.1,489.6,1396.8,491.6,1394.4z"/>
			</g>
		</g>
	</g>
	<g>
		<defs>
			<rect id="SVGID_28_" x="-809.6" y="-753.7" width="4031.3" height="3023.3"/>
		</defs>
		<clipPath id="SVGID_29_">
			<use xlink:href="#SVGID_28_"  style="overflow:visible;"/>
		</clipPath>
		<g class="st20">
			<g class="st11">
				<path d="M516,1365.5c0,13,1.1,30.2,3.2,51.6h-0.5c-2.5,0-5.1-1.8-7.7-5.5c-5.4-7.8-8.1-22-8.1-42.6c0-20.6,2.6-34.5,7.7-41.5
					c1.6-2.2,3.4-3.6,5.3-4.2c0.7-0.2,1.2-0.3,1.7-0.3c0.3,0,0.5,0,0.7,0.1C516.8,1338.3,516,1352.4,516,1365.5z"/>
			</g>
		</g>
	</g>
	<g>
		<defs>
			<rect id="SVGID_30_" x="-809.6" y="-753.7" width="4031.3" height="3023.3"/>
		</defs>
		<clipPath id="SVGID_31_">
			<use xlink:href="#SVGID_30_"  style="overflow:visible;"/>
		</clipPath>
		<g class="st21">
			<g class="st11">
				<path class="st17" d="M516,1365.5c0,13,1.1,30.2,3.2,51.6h-0.5c-2.5,0-5.1-1.8-7.7-5.5c-5.4-7.8-8.1-22-8.1-42.6
					c0-20.6,2.6-34.5,7.7-41.5c1.6-2.2,3.4-3.6,5.3-4.2c0.7-0.2,1.2-0.3,1.7-0.3c0.3,0,0.5,0,0.7,0.1
					C516.8,1338.3,516,1352.4,516,1365.5z"/>
			</g>
		</g>
	</g>
	<g>
		<defs>
			<rect id="SVGID_32_" x="-809.6" y="-753.7" width="4031.3" height="3023.3"/>
		</defs>
		<clipPath id="SVGID_33_">
			<use xlink:href="#SVGID_32_"  style="overflow:visible;"/>
		</clipPath>
		<g class="st22">
			<g class="st11">
				<path d="M529.9,1375.4c-0.1-0.8-0.2-1.7-0.2-2.6c0-2.2,0.5-4.5,1.4-6.9c2.8-6.7,8.9-10.9,18.4-12.5c2.4-0.4,4.8-0.7,7-0.7
					c4.2,0,8.1,0.7,11.7,2.2c5,2,9.1,5.2,12.5,9.7c3,4.1,5,8.8,6,14c0.5,2.3,0.7,4.6,0.7,6.8c0,2.5-0.3,5-1,7.4
					c-1.7,6.4-5.3,11.9-10.6,16.4c-2.7,2.2-5.2,3.8-7.5,4.8c-2.4,1.2-5.5,2.1-9,2.7c-1.7,0.3-3.5,0.4-5.1,0.4
					c-5.2,0-10-1.3-14.5-3.9c-5.9-3.4-9.7-8-11.5-13.8c-0.7-2.3-1-4.3-1-6.2c0-0.5,0-1,0.1-1.5v-0.2c0-2.5,0.9-5.1,2.7-7.9
					c3.6-5.6,10.1-8.9,19.3-10c1.4-0.2,2.7-0.3,3.9-0.3c5.4,0,9.2,1.6,11.4,4.7c1.2,1.7,1.8,3.5,1.8,5.4v0.5c-1-1-2.6-1.7-4.7-2.2
					c-1.2-0.3-2.5-0.5-3.9-0.5c-3.4,0-7.2,0.9-11.5,2.8c-4.4,1.9-6.6,5.2-6.6,9.7c0,0.5,0,1,0.1,1.4c0.2,2.2,1.1,4.2,2.7,6
					c1.6,1.8,3.6,3.1,6.1,4c2,0.7,4,1.1,6,1.1c3.7,0,7.3-1.3,10.9-3.8c3.1-2.2,5.6-5.3,7.5-9.2c1.7-3.7,2.6-7.5,2.6-11.3v-0.8
					c-0.2-4.4-1.6-8.1-4.2-11.1c-2.9-3.4-7.2-5.6-12.8-6.5c-1.4-0.2-2.9-0.3-4.3-0.3c-5.5,0-11,1.7-16.4,5.2
					C534.6,1370.7,531.9,1373,529.9,1375.4z"/>
			</g>
		</g>
	</g>
	<g>
		<defs>
			<rect id="SVGID_34_" x="-809.6" y="-753.7" width="4031.3" height="3023.3"/>
		</defs>
		<clipPath id="SVGID_35_">
			<use xlink:href="#SVGID_34_"  style="overflow:visible;"/>
		</clipPath>
		<g class="st23">
			<g class="st11">
				<path class="st17" d="M529.9,1375.4c-0.1-0.8-0.2-1.7-0.2-2.6c0-2.2,0.5-4.5,1.4-6.9c2.8-6.7,8.9-10.9,18.4-12.5
					c2.4-0.4,4.8-0.7,7-0.7c4.2,0,8.1,0.7,11.7,2.2c5,2,9.1,5.2,12.5,9.7c3,4.1,5,8.8,6,14c0.5,2.3,0.7,4.6,0.7,6.8
					c0,2.5-0.3,5-1,7.4c-1.7,6.4-5.3,11.9-10.6,16.4c-2.7,2.2-5.2,3.8-7.5,4.8c-2.4,1.2-5.5,2.1-9,2.7c-1.7,0.3-3.5,0.4-5.1,0.4
					c-5.2,0-10-1.3-14.5-3.9c-5.9-3.4-9.7-8-11.5-13.8c-0.7-2.3-1-4.3-1-6.2c0-0.5,0-1,0.1-1.5v-0.2c0-2.5,0.9-5.1,2.7-7.9
					c3.6-5.6,10.1-8.9,19.3-10c1.4-0.2,2.7-0.3,3.9-0.3c5.4,0,9.2,1.6,11.4,4.7c1.2,1.7,1.8,3.5,1.8,5.4v0.5c-1-1-2.6-1.7-4.7-2.2
					c-1.2-0.3-2.5-0.5-3.9-0.5c-3.4,0-7.2,0.9-11.5,2.8c-4.4,1.9-6.6,5.2-6.6,9.7c0,0.5,0,1,0.1,1.4c0.2,2.2,1.1,4.2,2.7,6
					c1.6,1.8,3.6,3.1,6.1,4c2,0.7,4,1.1,6,1.1c3.7,0,7.3-1.3,10.9-3.8c3.1-2.2,5.6-5.3,7.5-9.2c1.7-3.7,2.6-7.5,2.6-11.3v-0.8
					c-0.2-4.4-1.6-8.1-4.2-11.1c-2.9-3.4-7.2-5.6-12.8-6.5c-1.4-0.2-2.9-0.3-4.3-0.3c-5.5,0-11,1.7-16.4,5.2
					C534.6,1370.7,531.9,1373,529.9,1375.4z"/>
			</g>
		</g>
	</g>
	<g>
		<defs>
			<rect id="SVGID_36_" x="-809.6" y="-753.7" width="4031.3" height="3023.3"/>
		</defs>
		<clipPath id="SVGID_37_">
			<use xlink:href="#SVGID_36_"  style="overflow:visible;"/>
		</clipPath>
		<g class="st24">
			<g class="st11">
				<path d="M633.1,1352.8c12.3,0,20.9,6.5,25.7,19.6c2.5,7,3.8,14.6,3.8,22.9c0,2.4-0.1,4.9-0.3,7.4c-0.4,4.3-3,8-7.8,11.1
					c-2.4,1.5-4.8,2.6-7.1,3.3c1.7-5.9,2.5-12.2,2.5-18.9c0-3.6-0.2-7.4-0.7-11.3c-1.6-12.5-5.6-20.1-11.8-22.7
					c-2.1-0.9-4.3-1.3-6.6-1.3c-0.9,0-1.7,0.1-2.6,0.2c-3.3,0.5-6.4,1.7-9.2,3.7c-6.6,4.7-9.8,11.8-9.8,21.3c0,13.5,0.8,23.2,2.5,29
					h-0.4c-2.6,0-5.2-1.2-7.7-3.7c-5.4-5.3-8.1-15.1-8.1-29.2c0-14.1,2.2-23.6,6.7-28.4c1.4-1.5,3-2.4,4.7-2.8
					c0.6-0.1,1.1-0.2,1.5-0.2c0.2,0,0.4,0,0.6,0.1c-0.7,1.4-1.1,3.5-1.1,6.2c0,1,0.1,2.2,0.2,3.5
					C613.9,1356,622.3,1352.8,633.1,1352.8z"/>
			</g>
		</g>
	</g>
	<g>
		<defs>
			<rect id="SVGID_38_" x="-809.6" y="-753.7" width="4031.3" height="3023.3"/>
		</defs>
		<clipPath id="SVGID_39_">
			<use xlink:href="#SVGID_38_"  style="overflow:visible;"/>
		</clipPath>
		<g class="st25">
			<g class="st11">
				<path class="st17" d="M633.1,1352.8c12.3,0,20.9,6.5,25.7,19.6c2.5,7,3.8,14.6,3.8,22.9c0,2.4-0.1,4.9-0.3,7.4
					c-0.4,4.3-3,8-7.8,11.1c-2.4,1.5-4.8,2.6-7.1,3.3c1.7-5.9,2.5-12.2,2.5-18.9c0-3.6-0.2-7.4-0.7-11.3
					c-1.6-12.5-5.6-20.1-11.8-22.7c-2.1-0.9-4.3-1.3-6.6-1.3c-0.9,0-1.7,0.1-2.6,0.2c-3.3,0.5-6.4,1.7-9.2,3.7
					c-6.6,4.7-9.8,11.8-9.8,21.3c0,13.5,0.8,23.2,2.5,29h-0.4c-2.6,0-5.2-1.2-7.7-3.7c-5.4-5.3-8.1-15.1-8.1-29.2
					c0-14.1,2.2-23.6,6.7-28.4c1.4-1.5,3-2.4,4.7-2.8c0.6-0.1,1.1-0.2,1.5-0.2c0.2,0,0.4,0,0.6,0.1c-0.7,1.4-1.1,3.5-1.1,6.2
					c0,1,0.1,2.2,0.2,3.5C613.9,1356,622.3,1352.8,633.1,1352.8z"/>
			</g>
		</g>
	</g>
	<g>
		<defs>
			<rect id="SVGID_40_" x="-809.6" y="-753.7" width="4031.3" height="3023.3"/>
		</defs>
		<clipPath id="SVGID_41_">
			<use xlink:href="#SVGID_40_"  style="overflow:visible;"/>
		</clipPath>
		<g class="st26">
			<g class="st11">
				<path d="M713.8,1323c3.4,0.3,6.8,1.9,10.3,5c7,6.2,10.8,16.3,11.5,30.4c0.1,3.1,0.2,6,0.2,8.8c0,14.4-1.9,25.4-5.6,33.1
					c-5.5,11.1-15.4,16.7-29.8,16.7c-8.6,0-15.9-3.8-22-11.4c-5.4-6.7-8.1-14.4-8.1-22.9c0-1.4,0.1-2.8,0.2-4.2
					c0.9-8.5,5.2-15.4,12.9-20.6c5.2-3.5,10.3-5.2,15.3-5.2c2.2,0,4.4,0.4,6.6,1c6,1.9,9.7,5.7,11.3,11.3c0.5,1.8,0.8,3.5,0.8,5.2
					c0,0.9-0.1,1.7-0.3,2.6c-1.7-2.2-4-4.1-6.9-5.8c-3.1-1.8-6.2-2.7-9.2-2.7c-2.6,0-5.2,0.6-7.7,1.9c-4.3,2.1-7.3,5.3-9,9.4
					c-0.9,2.3-1.4,4.8-1.4,7.4c0,1.5,0.2,3.1,0.5,4.7c0.8,4.1,2.4,7.9,4.7,11.3c2.4,3.4,5,5.6,7.9,6.7c2.1,0.7,4.1,1.1,6.2,1.1
					c1.1,0,2.2-0.1,3.3-0.3c3.5-0.7,6.6-2.4,9.3-5.1c5.8-6,8.7-16.1,8.7-30.2c0-1.7,0-3.5-0.1-5.2
					C722.9,1352,719.6,1337.7,713.8,1323z"/>
			</g>
		</g>
	</g>
	<g>
		<defs>
			<rect id="SVGID_42_" x="-809.6" y="-753.7" width="4031.3" height="3023.3"/>
		</defs>
		<clipPath id="SVGID_43_">
			<use xlink:href="#SVGID_42_"  style="overflow:visible;"/>
		</clipPath>
		<g class="st27">
			<g class="st11">
				<path class="st17" d="M713.8,1323c3.4,0.3,6.8,1.9,10.3,5c7,6.2,10.8,16.3,11.5,30.4c0.1,3.1,0.2,6,0.2,8.8
					c0,14.4-1.9,25.4-5.6,33.1c-5.5,11.1-15.4,16.7-29.8,16.7c-8.6,0-15.9-3.8-22-11.4c-5.4-6.7-8.1-14.4-8.1-22.9
					c0-1.4,0.1-2.8,0.2-4.2c0.9-8.5,5.2-15.4,12.9-20.6c5.2-3.5,10.3-5.2,15.3-5.2c2.2,0,4.4,0.4,6.6,1c6,1.9,9.7,5.7,11.3,11.3
					c0.5,1.8,0.8,3.5,0.8,5.2c0,0.9-0.1,1.7-0.3,2.6c-1.7-2.2-4-4.1-6.9-5.8c-3.1-1.8-6.2-2.7-9.2-2.7c-2.6,0-5.2,0.6-7.7,1.9
					c-4.3,2.1-7.3,5.3-9,9.4c-0.9,2.3-1.4,4.8-1.4,7.4c0,1.5,0.2,3.1,0.5,4.7c0.8,4.1,2.4,7.9,4.7,11.3c2.4,3.4,5,5.6,7.9,6.7
					c2.1,0.7,4.1,1.1,6.2,1.1c1.1,0,2.2-0.1,3.3-0.3c3.5-0.7,6.6-2.4,9.3-5.1c5.8-6,8.7-16.1,8.7-30.2c0-1.7,0-3.5-0.1-5.2
					C722.9,1352,719.6,1337.7,713.8,1323z"/>
			</g>
		</g>
	</g>
</g>
<g>
	<g>
		<defs>
			<rect id="SVGID_44_" x="-811.6" y="-753.7" width="4031.3" height="3023.3"/>
		</defs>
		<clipPath id="SVGID_45_">
			<use xlink:href="#SVGID_44_"  style="overflow:visible;"/>
		</clipPath>
		<g class="st28">
			<g class="st11">
				<path d="M745.5,1391.4V1373h36.2v18.4H745.5z"/>
			</g>
		</g>
	</g>
</g>
<g>
	<g>
		<defs>
			<rect id="SVGID_46_" x="-801.6" y="-753.7" width="4031.3" height="3023.3"/>
		</defs>
		<clipPath id="SVGID_47_">
			<use xlink:href="#SVGID_46_"  style="overflow:visible;"/>
		</clipPath>
		<g class="st29">
			<g class="st11">
				<path class="st12" d="M821,1352.7c14.6,0,24.9,5.6,30.7,16.8c3.6,7,5.4,16,5.4,27c0,4.6-0.3,9.6-0.9,14.9
					c-1.8,15.3-7.2,25.6-16.1,30.9c-4.9,3-11.7,4.5-20.5,4.5c-7.2,0-12.8-2.6-16.6-7.9c-2-2.6-3.2-5.2-3.7-7.9
					c6.4,3.5,12.9,5.3,19.5,5.3c0.6,0,1.2,0,1.8-0.1c14.5-0.7,22.3-11.6,23.4-32.5c0.1-2,0.1-3.9,0.1-5.7c0-13.8-2.9-23.7-8.7-29.8
					c-2.7-2.8-5.8-4.5-9.3-5.1c-1.1-0.2-2.2-0.3-3.2-0.3c-2.1,0-4.2,0.4-6.2,1.2c-2.9,1-5.6,3.3-8,6.7c-2.4,3.4-3.9,7.1-4.7,11.2
					c-0.3,1.7-0.5,3.3-0.5,4.8c0,2.6,0.5,5.1,1.4,7.4c1.7,4.1,4.7,7.2,9,9.4c2.6,1.3,5.2,1.9,7.8,1.9c3.1,0,6.1-0.9,9.2-2.7
					c2.8-1.7,5.1-3.7,6.9-5.9c0.2,0.9,0.3,1.8,0.3,2.7c0,1.7-0.3,3.4-0.8,5.2c-1.5,5.6-5.3,9.4-11.3,11.3c-2.2,0.7-4.4,1-6.6,1
					c-5.1,0-10.2-1.7-15.4-5.2c-7.7-5.2-12-12.1-12.9-20.6c-0.1-1.4-0.2-2.8-0.2-4.2c0-8.6,2.7-16.3,8.1-22.9
					C805.1,1356.6,812.4,1352.7,821,1352.7z"/>
			</g>
		</g>
	</g>
	<g>
		<defs>
			<rect id="SVGID_48_" x="-801.6" y="-753.7" width="4031.3" height="3023.3"/>
		</defs>
		<clipPath id="SVGID_49_">
			<use xlink:href="#SVGID_48_"  style="overflow:visible;"/>
		</clipPath>
		<g class="st30">
			<g class="st11">
				<path class="st14" d="M821,1352.7c14.6,0,24.9,5.6,30.7,16.8c3.6,7,5.4,16,5.4,27c0,4.6-0.3,9.6-0.9,14.9
					c-1.8,15.3-7.2,25.6-16.1,30.9c-4.9,3-11.7,4.5-20.5,4.5c-7.2,0-12.8-2.6-16.6-7.9c-2-2.6-3.2-5.2-3.7-7.9
					c6.4,3.5,12.9,5.3,19.5,5.3c0.6,0,1.2,0,1.8-0.1c14.5-0.7,22.3-11.6,23.4-32.5c0.1-2,0.1-3.9,0.1-5.7c0-13.8-2.9-23.7-8.7-29.8
					c-2.7-2.8-5.8-4.5-9.3-5.1c-1.1-0.2-2.2-0.3-3.2-0.3c-2.1,0-4.2,0.4-6.2,1.2c-2.9,1-5.6,3.3-8,6.7c-2.4,3.4-3.9,7.1-4.7,11.2
					c-0.3,1.7-0.5,3.3-0.5,4.8c0,2.6,0.5,5.1,1.4,7.4c1.7,4.1,4.7,7.2,9,9.4c2.6,1.3,5.2,1.9,7.8,1.9c3.1,0,6.1-0.9,9.2-2.7
					c2.8-1.7,5.1-3.7,6.9-5.9c0.2,0.9,0.3,1.8,0.3,2.7c0,1.7-0.3,3.4-0.8,5.2c-1.5,5.6-5.3,9.4-11.3,11.3c-2.2,0.7-4.4,1-6.6,1
					c-5.1,0-10.2-1.7-15.4-5.2c-7.7-5.2-12-12.1-12.9-20.6c-0.1-1.4-0.2-2.8-0.2-4.2c0-8.6,2.7-16.3,8.1-22.9
					C805.1,1356.6,812.4,1352.7,821,1352.7z"/>
			</g>
		</g>
	</g>
</g>
<g>
	<g>
		<defs>
			<rect id="SVGID_50_" x="-801.6" y="-753.7" width="4031.3" height="3023.3"/>
		</defs>
		<clipPath id="SVGID_51_">
			<use xlink:href="#SVGID_50_"  style="overflow:visible;"/>
		</clipPath>
		<g class="st31">
			<g class="st11">
				<path d="M902.2,1352.8c3.2,0,5.8,0.2,7.7,0.6c-0.4,1.9-0.9,3.7-1.8,5.6c-1.7,3.7-4,5.6-6.6,5.6c-7.4,0-13.2,2.2-17.4,6.7
					c-4,4.2-6,9.9-6,16.8c0,13.5,0.8,23.2,2.5,29h-0.4c-2.6,0-5.2-1.2-7.7-3.7c-5.4-5.3-8.1-15.1-8.1-29.2c0-14.1,2.2-23.6,6.7-28.4
					c1.4-1.5,3-2.4,4.7-2.8c0.6-0.1,1.1-0.2,1.5-0.2c0.2,0,0.4,0,0.6,0.1c-0.7,1.4-1.1,3.5-1.1,6.2c0,1,0.1,2.2,0.2,3.5
					C883.1,1356,891.5,1352.8,902.2,1352.8z"/>
			</g>
		</g>
	</g>
	<g>
		<defs>
			<rect id="SVGID_52_" x="-801.6" y="-753.7" width="4031.3" height="3023.3"/>
		</defs>
		<clipPath id="SVGID_53_">
			<use xlink:href="#SVGID_52_"  style="overflow:visible;"/>
		</clipPath>
		<g class="st32">
			<g class="st11">
				<path class="st17" d="M902.2,1352.8c3.2,0,5.8,0.2,7.7,0.6c-0.4,1.9-0.9,3.7-1.8,5.6c-1.7,3.7-4,5.6-6.6,5.6
					c-7.4,0-13.2,2.2-17.4,6.7c-4,4.2-6,9.9-6,16.8c0,13.5,0.8,23.2,2.5,29h-0.4c-2.6,0-5.2-1.2-7.7-3.7c-5.4-5.3-8.1-15.1-8.1-29.2
					c0-14.1,2.2-23.6,6.7-28.4c1.4-1.5,3-2.4,4.7-2.8c0.6-0.1,1.1-0.2,1.5-0.2c0.2,0,0.4,0,0.6,0.1c-0.7,1.4-1.1,3.5-1.1,6.2
					c0,1,0.1,2.2,0.2,3.5C883.1,1356,891.5,1352.8,902.2,1352.8z"/>
			</g>
		</g>
	</g>
	<g>
		<defs>
			<rect id="SVGID_54_" x="-801.6" y="-753.7" width="4031.3" height="3023.3"/>
		</defs>
		<clipPath id="SVGID_55_">
			<use xlink:href="#SVGID_54_"  style="overflow:visible;"/>
		</clipPath>
		<g class="st33">
			<g class="st11">
				<path d="M975.3,1394.4c0.1,0.8,0.2,1.7,0.2,2.6c0,2.2-0.5,4.5-1.4,6.9c-2.8,6.7-8.9,10.9-18.4,12.5c-2.4,0.4-4.7,0.7-7,0.7
					c-4.2,0-8-0.7-11.7-2.2c-5-2-9.1-5.2-12.5-9.7c-3-4.1-5-8.8-6-14c-0.5-2.3-0.7-4.6-0.7-6.8c0-2.5,0.3-5,1-7.4
					c1.7-6.4,5.3-11.9,10.6-16.4c2.7-2.2,5.2-3.8,7.5-4.8c2.4-1.2,5.5-2.1,9-2.7c1.7-0.3,3.5-0.4,5.1-0.4c5.2,0,10,1.3,14.5,3.9
					c5.9,3.5,9.7,8.1,11.5,13.8c0.7,2.3,1,4.3,1,6.2c0,0.6,0,1.1-0.1,1.6v0.2c0,2.4-0.9,5-2.7,7.8c-3.6,5.6-10.1,8.9-19.3,10
					c-1.4,0.2-2.7,0.3-3.9,0.3c-5.4,0-9.2-1.6-11.4-4.7c-1.2-1.7-1.8-3.5-1.8-5.4v-0.5c1,1,2.5,1.7,4.7,2.2c1.2,0.3,2.4,0.4,3.7,0.4
					c3.5,0,7.3-0.9,11.6-2.8c4.4-1.9,6.6-5.2,6.6-9.7c0-0.5,0-1-0.1-1.4c-0.2-2.2-1.1-4.2-2.7-6c-1.6-1.8-3.6-3.1-6.1-4.1
					c-2-0.7-4-1-6-1c-3.7,0-7.4,1.2-10.9,3.7c-3.1,2.2-5.7,5.3-7.5,9.2c-1.7,3.6-2.6,7.3-2.6,11.1v1c0.2,4.4,1.6,8.1,4.1,11.1
					c3,3.4,7.3,5.6,12.9,6.5c1.4,0.2,2.8,0.3,4.3,0.3c5.5,0,10.9-1.7,16.3-5.2C970.5,1399.1,973.3,1396.8,975.3,1394.4z"/>
			</g>
		</g>
	</g>
	<g>
		<defs>
			<rect id="SVGID_56_" x="-801.6" y="-753.7" width="4031.3" height="3023.3"/>
		</defs>
		<clipPath id="SVGID_57_">
			<use xlink:href="#SVGID_56_"  style="overflow:visible;"/>
		</clipPath>
		<g class="st34">
			<g class="st11">
				<path class="st17" d="M975.3,1394.4c0.1,0.8,0.2,1.7,0.2,2.6c0,2.2-0.5,4.5-1.4,6.9c-2.8,6.7-8.9,10.9-18.4,12.5
					c-2.4,0.4-4.7,0.7-7,0.7c-4.2,0-8-0.7-11.7-2.2c-5-2-9.1-5.2-12.5-9.7c-3-4.1-5-8.8-6-14c-0.5-2.3-0.7-4.6-0.7-6.8
					c0-2.5,0.3-5,1-7.4c1.7-6.4,5.3-11.9,10.6-16.4c2.7-2.2,5.2-3.8,7.5-4.8c2.4-1.2,5.5-2.1,9-2.7c1.7-0.3,3.5-0.4,5.1-0.4
					c5.2,0,10,1.3,14.5,3.9c5.9,3.5,9.7,8.1,11.5,13.8c0.7,2.3,1,4.3,1,6.2c0,0.6,0,1.1-0.1,1.6v0.2c0,2.4-0.9,5-2.7,7.8
					c-3.6,5.6-10.1,8.9-19.3,10c-1.4,0.2-2.7,0.3-3.9,0.3c-5.4,0-9.2-1.6-11.4-4.7c-1.2-1.7-1.8-3.5-1.8-5.4v-0.5
					c1,1,2.5,1.7,4.7,2.2c1.2,0.3,2.4,0.4,3.7,0.4c3.5,0,7.3-0.9,11.6-2.8c4.4-1.9,6.6-5.2,6.6-9.7c0-0.5,0-1-0.1-1.4
					c-0.2-2.2-1.1-4.2-2.7-6c-1.6-1.8-3.6-3.1-6.1-4.1c-2-0.7-4-1-6-1c-3.7,0-7.4,1.2-10.9,3.7c-3.1,2.2-5.7,5.3-7.5,9.2
					c-1.7,3.6-2.6,7.3-2.6,11.1v1c0.2,4.4,1.6,8.1,4.1,11.1c3,3.4,7.3,5.6,12.9,6.5c1.4,0.2,2.8,0.3,4.3,0.3
					c5.5,0,10.9-1.7,16.3-5.2C970.5,1399.1,973.3,1396.8,975.3,1394.4z"/>
			</g>
		</g>
	</g>
	<g>
		<defs>
			<rect id="SVGID_58_" x="-801.6" y="-753.7" width="4031.3" height="3023.3"/>
		</defs>
		<clipPath id="SVGID_59_">
			<use xlink:href="#SVGID_58_"  style="overflow:visible;"/>
		</clipPath>
		<g class="st35">
			<g class="st11">
				<path d="M1043.5,1394.4c0.1,0.8,0.2,1.7,0.2,2.6c0,2.2-0.5,4.5-1.4,6.9c-2.8,6.7-8.9,10.9-18.4,12.5c-2.4,0.4-4.7,0.7-7,0.7
					c-4.2,0-8-0.7-11.7-2.2c-5-2-9.1-5.2-12.5-9.7c-3-4.1-5-8.8-6-14c-0.5-2.3-0.7-4.6-0.7-6.8c0-2.5,0.3-5,1-7.4
					c1.7-6.4,5.3-11.9,10.6-16.4c2.7-2.2,5.2-3.8,7.5-4.8c2.4-1.2,5.5-2.1,9-2.7c1.7-0.3,3.5-0.4,5.1-0.4c5.2,0,10,1.3,14.5,3.9
					c5.9,3.5,9.7,8.1,11.5,13.8c0.7,2.3,1,4.3,1,6.2c0,0.6,0,1.1-0.1,1.6v0.2c0,2.4-0.9,5-2.7,7.8c-3.6,5.6-10.1,8.9-19.3,10
					c-1.4,0.2-2.7,0.3-3.9,0.3c-5.4,0-9.2-1.6-11.4-4.7c-1.2-1.7-1.8-3.5-1.8-5.4v-0.5c1,1,2.5,1.7,4.7,2.2c1.2,0.3,2.4,0.4,3.7,0.4
					c3.5,0,7.3-0.9,11.6-2.8c4.4-1.9,6.6-5.2,6.6-9.7c0-0.5,0-1-0.1-1.4c-0.2-2.2-1.1-4.2-2.7-6c-1.6-1.8-3.6-3.1-6.1-4.1
					c-2-0.7-4-1-6-1c-3.7,0-7.4,1.2-10.9,3.7c-3.1,2.2-5.7,5.3-7.5,9.2c-1.7,3.6-2.6,7.3-2.6,11.1v1c0.2,4.4,1.6,8.1,4.1,11.1
					c3,3.4,7.3,5.6,12.9,6.5c1.4,0.2,2.8,0.3,4.3,0.3c5.5,0,10.9-1.7,16.3-5.2C1038.7,1399.1,1041.5,1396.8,1043.5,1394.4z"/>
			</g>
		</g>
	</g>
	<g>
		<defs>
			<rect id="SVGID_60_" x="-801.6" y="-753.7" width="4031.3" height="3023.3"/>
		</defs>
		<clipPath id="SVGID_61_">
			<use xlink:href="#SVGID_60_"  style="overflow:visible;"/>
		</clipPath>
		<g class="st36">
			<g class="st11">
				<path class="st17" d="M1043.5,1394.4c0.1,0.8,0.2,1.7,0.2,2.6c0,2.2-0.5,4.5-1.4,6.9c-2.8,6.7-8.9,10.9-18.4,12.5
					c-2.4,0.4-4.7,0.7-7,0.7c-4.2,0-8-0.7-11.7-2.2c-5-2-9.1-5.2-12.5-9.7c-3-4.1-5-8.8-6-14c-0.5-2.3-0.7-4.6-0.7-6.8
					c0-2.5,0.3-5,1-7.4c1.7-6.4,5.3-11.9,10.6-16.4c2.7-2.2,5.2-3.8,7.5-4.8c2.4-1.2,5.5-2.1,9-2.7c1.7-0.3,3.5-0.4,5.1-0.4
					c5.2,0,10,1.3,14.5,3.9c5.9,3.5,9.7,8.1,11.5,13.8c0.7,2.3,1,4.3,1,6.2c0,0.6,0,1.1-0.1,1.6v0.2c0,2.4-0.9,5-2.7,7.8
					c-3.6,5.6-10.1,8.9-19.3,10c-1.4,0.2-2.7,0.3-3.9,0.3c-5.4,0-9.2-1.6-11.4-4.7c-1.2-1.7-1.8-3.5-1.8-5.4v-0.5
					c1,1,2.5,1.7,4.7,2.2c1.2,0.3,2.4,0.4,3.7,0.4c3.5,0,7.3-0.9,11.6-2.8c4.4-1.9,6.6-5.2,6.6-9.7c0-0.5,0-1-0.1-1.4
					c-0.2-2.2-1.1-4.2-2.7-6c-1.6-1.8-3.6-3.1-6.1-4.1c-2-0.7-4-1-6-1c-3.7,0-7.4,1.2-10.9,3.7c-3.1,2.2-5.7,5.3-7.5,9.2
					c-1.7,3.6-2.6,7.3-2.6,11.1v1c0.2,4.4,1.6,8.1,4.1,11.1c3,3.4,7.3,5.6,12.9,6.5c1.4,0.2,2.8,0.3,4.3,0.3
					c5.5,0,10.9-1.7,16.3-5.2C1038.7,1399.1,1041.5,1396.8,1043.5,1394.4z"/>
			</g>
		</g>
	</g>
	<g>
		<defs>
			<rect id="SVGID_62_" x="-801.6" y="-753.7" width="4031.3" height="3023.3"/>
		</defs>
		<clipPath id="SVGID_63_">
			<use xlink:href="#SVGID_62_"  style="overflow:visible;"/>
		</clipPath>
		<g class="st37">
			<g class="st11">
				<path d="M1091.9,1352.8c12.3,0,20.9,6.5,25.7,19.6c2.5,7,3.8,14.6,3.8,22.9c0,2.4-0.1,4.9-0.3,7.4c-0.4,4.3-3,8-7.8,11.1
					c-2.4,1.5-4.8,2.6-7.1,3.3c1.7-5.9,2.5-12.2,2.5-18.9c0-3.6-0.2-7.4-0.7-11.3c-1.6-12.5-5.6-20.1-11.8-22.7
					c-2.1-0.9-4.3-1.3-6.6-1.3c-0.9,0-1.7,0.1-2.6,0.2c-3.3,0.5-6.4,1.7-9.2,3.7c-6.6,4.7-9.8,11.8-9.8,21.3c0,13.5,0.8,23.2,2.5,29
					h-0.4c-2.6,0-5.2-1.2-7.7-3.7c-5.4-5.3-8.1-15.1-8.1-29.2c0-14.1,2.2-23.6,6.7-28.4c1.4-1.5,3-2.4,4.7-2.8
					c0.6-0.1,1.1-0.2,1.5-0.2c0.2,0,0.4,0,0.6,0.1c-0.7,1.4-1.1,3.5-1.1,6.2c0,1,0.1,2.2,0.2,3.5
					C1072.8,1356,1081.2,1352.8,1091.9,1352.8z"/>
			</g>
		</g>
	</g>
	<g>
		<defs>
			<rect id="SVGID_64_" x="-801.6" y="-753.7" width="4031.3" height="3023.3"/>
		</defs>
		<clipPath id="SVGID_65_">
			<use xlink:href="#SVGID_64_"  style="overflow:visible;"/>
		</clipPath>
		<g class="st38">
			<g class="st11">
				<path class="st17" d="M1091.9,1352.8c12.3,0,20.9,6.5,25.7,19.6c2.5,7,3.8,14.6,3.8,22.9c0,2.4-0.1,4.9-0.3,7.4
					c-0.4,4.3-3,8-7.8,11.1c-2.4,1.5-4.8,2.6-7.1,3.3c1.7-5.9,2.5-12.2,2.5-18.9c0-3.6-0.2-7.4-0.7-11.3
					c-1.6-12.5-5.6-20.1-11.8-22.7c-2.1-0.9-4.3-1.3-6.6-1.3c-0.9,0-1.7,0.1-2.6,0.2c-3.3,0.5-6.4,1.7-9.2,3.7
					c-6.6,4.7-9.8,11.8-9.8,21.3c0,13.5,0.8,23.2,2.5,29h-0.4c-2.6,0-5.2-1.2-7.7-3.7c-5.4-5.3-8.1-15.1-8.1-29.2
					c0-14.1,2.2-23.6,6.7-28.4c1.4-1.5,3-2.4,4.7-2.8c0.6-0.1,1.1-0.2,1.5-0.2c0.2,0,0.4,0,0.6,0.1c-0.7,1.4-1.1,3.5-1.1,6.2
					c0,1,0.1,2.2,0.2,3.5C1072.8,1356,1081.2,1352.8,1091.9,1352.8z"/>
			</g>
		</g>
	</g>
	<g>
		<defs>
			<rect id="SVGID_66_" x="-801.6" y="-753.7" width="4031.3" height="3023.3"/>
		</defs>
		<clipPath id="SVGID_67_">
			<use xlink:href="#SVGID_66_"  style="overflow:visible;"/>
		</clipPath>
		<g class="st39">
			<g class="st11">
				<path d="M1142.4,1365.5c0,13,1.1,30.2,3.2,51.6h-0.5c-2.5,0-5.1-1.8-7.7-5.5c-5.4-7.8-8.1-22-8.1-42.6c0-20.6,2.6-34.5,7.7-41.5
					c1.6-2.2,3.4-3.6,5.3-4.2c0.7-0.2,1.2-0.3,1.7-0.3c0.3,0,0.5,0,0.7,0.1C1143.2,1338.3,1142.4,1352.4,1142.4,1365.5z"/>
			</g>
		</g>
	</g>
	<g>
		<defs>
			<rect id="SVGID_68_" x="-801.6" y="-753.7" width="4031.3" height="3023.3"/>
		</defs>
		<clipPath id="SVGID_69_">
			<use xlink:href="#SVGID_68_"  style="overflow:visible;"/>
		</clipPath>
		<g class="st40">
			<g class="st11">
				<path class="st17" d="M1142.4,1365.5c0,13,1.1,30.2,3.2,51.6h-0.5c-2.5,0-5.1-1.8-7.7-5.5c-5.4-7.8-8.1-22-8.1-42.6
					c0-20.6,2.6-34.5,7.7-41.5c1.6-2.2,3.4-3.6,5.3-4.2c0.7-0.2,1.2-0.3,1.7-0.3c0.3,0,0.5,0,0.7,0.1
					C1143.2,1338.3,1142.4,1352.4,1142.4,1365.5z"/>
			</g>
		</g>
	</g>
	<g>
		<defs>
			<rect id="SVGID_70_" x="-801.6" y="-753.7" width="4031.3" height="3023.3"/>
		</defs>
		<clipPath id="SVGID_71_">
			<use xlink:href="#SVGID_70_"  style="overflow:visible;"/>
		</clipPath>
		<g class="st41">
			<g class="st11">
				<path d="M1156.3,1375.4c-0.1-0.8-0.2-1.7-0.2-2.6c0-2.2,0.5-4.5,1.4-6.9c2.8-6.7,8.9-10.9,18.4-12.5c2.4-0.4,4.8-0.7,7-0.7
					c4.2,0,8.1,0.7,11.7,2.2c5,2,9.1,5.2,12.5,9.7c3,4.1,5,8.8,6,14c0.5,2.3,0.7,4.6,0.7,6.8c0,2.5-0.3,5-1,7.4
					c-1.7,6.4-5.3,11.9-10.6,16.4c-2.7,2.2-5.2,3.8-7.5,4.8c-2.4,1.2-5.5,2.1-9,2.7c-1.7,0.3-3.5,0.4-5.1,0.4
					c-5.2,0-10-1.3-14.5-3.9c-5.9-3.4-9.7-8-11.5-13.8c-0.7-2.3-1-4.3-1-6.2c0-0.5,0-1,0.1-1.5v-0.2c0-2.5,0.9-5.1,2.7-7.9
					c3.6-5.6,10.1-8.9,19.3-10c1.4-0.2,2.7-0.3,3.9-0.3c5.4,0,9.2,1.6,11.4,4.7c1.2,1.7,1.8,3.5,1.8,5.4v0.5c-1-1-2.6-1.7-4.7-2.2
					c-1.2-0.3-2.5-0.5-3.9-0.5c-3.4,0-7.2,0.9-11.5,2.8c-4.4,1.9-6.6,5.2-6.6,9.7c0,0.5,0,1,0.1,1.4c0.2,2.2,1.1,4.2,2.7,6
					c1.6,1.8,3.6,3.1,6.1,4c2,0.7,4,1.1,6,1.1c3.7,0,7.3-1.3,10.9-3.8c3.1-2.2,5.6-5.3,7.5-9.2c1.7-3.7,2.6-7.5,2.6-11.3v-0.8
					c-0.2-4.4-1.6-8.1-4.2-11.1c-2.9-3.4-7.2-5.6-12.8-6.5c-1.4-0.2-2.9-0.3-4.3-0.3c-5.5,0-11,1.7-16.4,5.2
					C1161,1370.7,1158.3,1373,1156.3,1375.4z"/>
			</g>
		</g>
	</g>
	<g>
		<defs>
			<rect id="SVGID_72_" x="-801.6" y="-753.7" width="4031.3" height="3023.3"/>
		</defs>
		<clipPath id="SVGID_73_">
			<use xlink:href="#SVGID_72_"  style="overflow:visible;"/>
		</clipPath>
		<g class="st42">
			<g class="st11">
				<path class="st17" d="M1156.3,1375.4c-0.1-0.8-0.2-1.7-0.2-2.6c0-2.2,0.5-4.5,1.4-6.9c2.8-6.7,8.9-10.9,18.4-12.5
					c2.4-0.4,4.8-0.7,7-0.7c4.2,0,8.1,0.7,11.7,2.2c5,2,9.1,5.2,12.5,9.7c3,4.1,5,8.8,6,14c0.5,2.3,0.7,4.6,0.7,6.8
					c0,2.5-0.3,5-1,7.4c-1.7,6.4-5.3,11.9-10.6,16.4c-2.7,2.2-5.2,3.8-7.5,4.8c-2.4,1.2-5.5,2.1-9,2.7c-1.7,0.3-3.5,0.4-5.1,0.4
					c-5.2,0-10-1.3-14.5-3.9c-5.9-3.4-9.7-8-11.5-13.8c-0.7-2.3-1-4.3-1-6.2c0-0.5,0-1,0.1-1.5v-0.2c0-2.5,0.9-5.1,2.7-7.9
					c3.6-5.6,10.1-8.9,19.3-10c1.4-0.2,2.7-0.3,3.9-0.3c5.4,0,9.2,1.6,11.4,4.7c1.2,1.7,1.8,3.5,1.8,5.4v0.5c-1-1-2.6-1.7-4.7-2.2
					c-1.2-0.3-2.5-0.5-3.9-0.5c-3.4,0-7.2,0.9-11.5,2.8c-4.4,1.9-6.6,5.2-6.6,9.7c0,0.5,0,1,0.1,1.4c0.2,2.2,1.1,4.2,2.7,6
					c1.6,1.8,3.6,3.1,6.1,4c2,0.7,4,1.1,6,1.1c3.7,0,7.3-1.3,10.9-3.8c3.1-2.2,5.6-5.3,7.5-9.2c1.7-3.7,2.6-7.5,2.6-11.3v-0.8
					c-0.2-4.4-1.6-8.1-4.2-11.1c-2.9-3.4-7.2-5.6-12.8-6.5c-1.4-0.2-2.9-0.3-4.3-0.3c-5.5,0-11,1.7-16.4,5.2
					C1161,1370.7,1158.3,1373,1156.3,1375.4z"/>
			</g>
		</g>
	</g>
	<g>
		<defs>
			<rect id="SVGID_74_" x="-801.6" y="-753.7" width="4031.3" height="3023.3"/>
		</defs>
		<clipPath id="SVGID_75_">
			<use xlink:href="#SVGID_74_"  style="overflow:visible;"/>
		</clipPath>
		<g class="st43">
			<g class="st11">
				<path d="M1259.5,1352.8c12.3,0,20.9,6.5,25.7,19.6c2.5,7,3.8,14.6,3.8,22.9c0,2.4-0.1,4.9-0.3,7.4c-0.4,4.3-3,8-7.8,11.1
					c-2.4,1.5-4.8,2.6-7.1,3.3c1.7-5.9,2.5-12.2,2.5-18.9c0-3.6-0.2-7.4-0.7-11.3c-1.6-12.5-5.6-20.1-11.8-22.7
					c-2.1-0.9-4.3-1.3-6.6-1.3c-0.9,0-1.7,0.1-2.6,0.2c-3.3,0.5-6.4,1.7-9.2,3.7c-6.6,4.7-9.8,11.8-9.8,21.3c0,13.5,0.8,23.2,2.5,29
					h-0.4c-2.6,0-5.2-1.2-7.7-3.7c-5.4-5.3-8.1-15.1-8.1-29.2c0-14.1,2.2-23.6,6.7-28.4c1.4-1.5,3-2.4,4.7-2.8
					c0.6-0.1,1.1-0.2,1.5-0.2c0.2,0,0.4,0,0.6,0.1c-0.7,1.4-1.1,3.5-1.1,6.2c0,1,0.1,2.2,0.2,3.5
					C1240.3,1356,1248.7,1352.8,1259.5,1352.8z"/>
			</g>
		</g>
	</g>
	<g>
		<defs>
			<rect id="SVGID_76_" x="-801.6" y="-753.7" width="4031.3" height="3023.3"/>
		</defs>
		<clipPath id="SVGID_77_">
			<use xlink:href="#SVGID_76_"  style="overflow:visible;"/>
		</clipPath>
		<g class="st44">
			<g class="st11">
				<path class="st17" d="M1259.5,1352.8c12.3,0,20.9,6.5,25.7,19.6c2.5,7,3.8,14.6,3.8,22.9c0,2.4-0.1,4.9-0.3,7.4
					c-0.4,4.3-3,8-7.8,11.1c-2.4,1.5-4.8,2.6-7.1,3.3c1.7-5.9,2.5-12.2,2.5-18.9c0-3.6-0.2-7.4-0.7-11.3
					c-1.6-12.5-5.6-20.1-11.8-22.7c-2.1-0.9-4.3-1.3-6.6-1.3c-0.9,0-1.7,0.1-2.6,0.2c-3.3,0.5-6.4,1.7-9.2,3.7
					c-6.6,4.7-9.8,11.8-9.8,21.3c0,13.5,0.8,23.2,2.5,29h-0.4c-2.6,0-5.2-1.2-7.7-3.7c-5.4-5.3-8.1-15.1-8.1-29.2
					c0-14.1,2.2-23.6,6.7-28.4c1.4-1.5,3-2.4,4.7-2.8c0.6-0.1,1.1-0.2,1.5-0.2c0.2,0,0.4,0,0.6,0.1c-0.7,1.4-1.1,3.5-1.1,6.2
					c0,1,0.1,2.2,0.2,3.5C1240.3,1356,1248.7,1352.8,1259.5,1352.8z"/>
			</g>
		</g>
	</g>
	<g>
		<defs>
			<rect id="SVGID_78_" x="-801.6" y="-753.7" width="4031.3" height="3023.3"/>
		</defs>
		<clipPath id="SVGID_79_">
			<use xlink:href="#SVGID_78_"  style="overflow:visible;"/>
		</clipPath>
		<g class="st45">
			<g class="st11">
				<path d="M1339.8,1323c3.4,0.3,6.8,1.9,10.3,5c7,6.2,10.8,16.3,11.5,30.4c0.1,3.1,0.2,6,0.2,8.8c0,14.4-1.9,25.4-5.6,33.1
					c-5.5,11.1-15.4,16.7-29.8,16.7c-8.6,0-15.9-3.8-22-11.4c-5.4-6.7-8.1-14.4-8.1-22.9c0-1.4,0.1-2.8,0.2-4.2
					c0.9-8.5,5.2-15.4,12.9-20.6c5.2-3.5,10.3-5.2,15.3-5.2c2.2,0,4.4,0.4,6.6,1c6,1.9,9.7,5.7,11.3,11.3c0.5,1.8,0.8,3.5,0.8,5.2
					c0,0.9-0.1,1.7-0.3,2.6c-1.7-2.2-4-4.1-6.9-5.8c-3.1-1.8-6.2-2.7-9.2-2.7c-2.6,0-5.2,0.6-7.7,1.9c-4.3,2.1-7.3,5.3-9,9.4
					c-0.9,2.3-1.4,4.8-1.4,7.4c0,1.5,0.2,3.1,0.5,4.7c0.8,4.1,2.4,7.9,4.7,11.3c2.4,3.4,5,5.6,7.9,6.7c2.1,0.7,4.1,1.1,6.2,1.1
					c1.1,0,2.2-0.1,3.3-0.3c3.5-0.7,6.6-2.4,9.3-5.1c5.8-6,8.7-16.1,8.7-30.2c0-1.7,0-3.5-0.1-5.2
					C1348.9,1352,1345.6,1337.7,1339.8,1323z"/>
			</g>
		</g>
	</g>
	<g>
		<defs>
			<rect id="SVGID_80_" x="-801.6" y="-753.7" width="4031.3" height="3023.3"/>
		</defs>
		<clipPath id="SVGID_81_">
			<use xlink:href="#SVGID_80_"  style="overflow:visible;"/>
		</clipPath>
		<g class="st46">
			<g class="st11">
				<path class="st17" d="M1339.8,1323c3.4,0.3,6.8,1.9,10.3,5c7,6.2,10.8,16.3,11.5,30.4c0.1,3.1,0.2,6,0.2,8.8
					c0,14.4-1.9,25.4-5.6,33.1c-5.5,11.1-15.4,16.7-29.8,16.7c-8.6,0-15.9-3.8-22-11.4c-5.4-6.7-8.1-14.4-8.1-22.9
					c0-1.4,0.1-2.8,0.2-4.2c0.9-8.5,5.2-15.4,12.9-20.6c5.2-3.5,10.3-5.2,15.3-5.2c2.2,0,4.4,0.4,6.6,1c6,1.9,9.7,5.7,11.3,11.3
					c0.5,1.8,0.8,3.5,0.8,5.2c0,0.9-0.1,1.7-0.3,2.6c-1.7-2.2-4-4.1-6.9-5.8c-3.1-1.8-6.2-2.7-9.2-2.7c-2.6,0-5.2,0.6-7.7,1.9
					c-4.3,2.1-7.3,5.3-9,9.4c-0.9,2.3-1.4,4.8-1.4,7.4c0,1.5,0.2,3.1,0.5,4.7c0.8,4.1,2.4,7.9,4.7,11.3c2.4,3.4,5,5.6,7.9,6.7
					c2.1,0.7,4.1,1.1,6.2,1.1c1.1,0,2.2-0.1,3.3-0.3c3.5-0.7,6.6-2.4,9.3-5.1c5.8-6,8.7-16.1,8.7-30.2c0-1.7,0-3.5-0.1-5.2
					C1348.9,1352,1345.6,1337.7,1339.8,1323z"/>
			</g>
		</g>
	</g>
</g>
<g>
	<g>
		<defs>
			<rect id="SVGID_82_" x="-801.6" y="-753.7" width="4031.3" height="3023.3"/>
		</defs>
		<clipPath id="SVGID_83_">
			<use xlink:href="#SVGID_82_"  style="overflow:visible;"/>
		</clipPath>
		<g class="st47">
			<text transform="matrix(1 0 0 1 1366.0527 1417.0443)" class="st48 st49"> </text>
		</g>
	</g>
	<g>
		<defs>
			<rect id="SVGID_84_" x="-801.6" y="-753.7" width="4031.3" height="3023.3"/>
		</defs>
		<clipPath id="SVGID_85_">
			<use xlink:href="#SVGID_84_"  style="overflow:visible;"/>
		</clipPath>
		<g class="st50">
			<text transform="matrix(1 0 0 1 1366.0527 1417.0443)" class="st17 st48 st49"> </text>
		</g>
	</g>
</g>
<g>
	<g>
		<defs>
			<rect id="SVGID_86_" x="-801.6" y="-753.7" width="4031.3" height="3023.3"/>
		</defs>
		<clipPath id="SVGID_87_">
			<use xlink:href="#SVGID_86_"  style="overflow:visible;"/>
		</clipPath>
		<g class="st51">
			<g class="st11">
				<path d="M700.4,1483c3.5,2.1,5.8,4.3,6.9,6.7c1,1.9,1.4,4.1,1.4,6.6c0,0.5,0,1-0.1,1.5c-1.9-2.1-4.3-3.9-7.1-5.2
					c-4.8-2.3-10.2-3.5-16.1-3.5c-5.5,0-10.2,0.7-14.2,2c-4.8,1.6-7.1,3.8-7.1,6.6c0,2.8,2.2,4.6,6.6,5.6c1.1,0.3,6.6,1,16.5,2.1
					c8,0.9,14,2.6,17.9,5.2c3.9,2.7,5.9,6.3,5.9,10.9c0,7.2-3,12.7-8.9,16.5c-5.6,3.5-13.4,5.2-23.4,5.2c-12,0-19.7-3.8-23-11.5
					c-0.7-1.7-1.1-3.3-1.1-4.7v-0.5c2.8,1.8,6.2,3.3,10.3,4.5c3.8,1.1,7.9,1.7,12.3,1.7c6.5,0,11.8-0.7,15.9-2
					c4.9-1.6,7.3-4,7.3-7.2c0-3-2.2-5.2-6.6-6.6c-2.1-0.7-7.6-1.6-16.3-2.7c-9.6-1.2-15.7-2.4-18.4-3.7c-4.3-2-6.5-5.7-6.5-11.1
					c0-6.5,2.7-11.6,8.2-15.1c5.5-3.6,13.4-5.4,23.5-5.4C690.5,1478.9,695.8,1480.3,700.4,1483z"/>
			</g>
		</g>
	</g>
	<g>
		<defs>
			<rect id="SVGID_88_" x="-801.6" y="-753.7" width="4031.3" height="3023.3"/>
		</defs>
		<clipPath id="SVGID_89_">
			<use xlink:href="#SVGID_88_"  style="overflow:visible;"/>
		</clipPath>
		<g class="st52">
			<g class="st11">
				<path class="st53" d="M700.4,1483c3.5,2.1,5.8,4.3,6.9,6.7c1,1.9,1.4,4.1,1.4,6.6c0,0.5,0,1-0.1,1.5c-1.9-2.1-4.3-3.9-7.1-5.2
					c-4.8-2.3-10.2-3.5-16.1-3.5c-5.5,0-10.2,0.7-14.2,2c-4.8,1.6-7.1,3.8-7.1,6.6c0,2.8,2.2,4.6,6.6,5.6c1.1,0.3,6.6,1,16.5,2.1
					c8,0.9,14,2.6,17.9,5.2c3.9,2.7,5.9,6.3,5.9,10.9c0,7.2-3,12.7-8.9,16.5c-5.6,3.5-13.4,5.2-23.4,5.2c-12,0-19.7-3.8-23-11.5
					c-0.7-1.7-1.1-3.3-1.1-4.7v-0.5c2.8,1.8,6.2,3.3,10.3,4.5c3.8,1.1,7.9,1.7,12.3,1.7c6.5,0,11.8-0.7,15.9-2
					c4.9-1.6,7.3-4,7.3-7.2c0-3-2.2-5.2-6.6-6.6c-2.1-0.7-7.6-1.6-16.3-2.7c-9.6-1.2-15.7-2.4-18.4-3.7c-4.3-2-6.5-5.7-6.5-11.1
					c0-6.5,2.7-11.6,8.2-15.1c5.5-3.6,13.4-5.4,23.5-5.4C690.5,1478.9,695.8,1480.3,700.4,1483z"/>
			</g>
		</g>
	</g>
	<g>
		<defs>
			<rect id="SVGID_90_" x="-801.6" y="-753.7" width="4031.3" height="3023.3"/>
		</defs>
		<clipPath id="SVGID_91_">
			<use xlink:href="#SVGID_90_"  style="overflow:visible;"/>
		</clipPath>
		<g class="st54">
			<g class="st11">
				<path d="M776.8,1520.5c0.1,0.8,0.2,1.7,0.2,2.6c0,2.2-0.5,4.5-1.4,6.9c-2.8,6.7-8.9,10.9-18.4,12.5c-2.4,0.4-4.7,0.7-7,0.7
					c-4.2,0-8-0.7-11.7-2.2c-5-2-9.1-5.2-12.5-9.7c-3-4.1-5-8.8-6-14c-0.5-2.3-0.7-4.6-0.7-6.8c0-2.5,0.3-5,1-7.4
					c1.7-6.4,5.3-11.9,10.6-16.4c2.7-2.2,5.2-3.8,7.5-4.8c2.4-1.2,5.5-2.1,9-2.7c1.7-0.3,3.5-0.4,5.1-0.4c5.2,0,10,1.3,14.5,3.9
					c5.9,3.5,9.7,8.1,11.5,13.8c0.7,2.3,1,4.3,1,6.2c0,0.6,0,1.1-0.1,1.6v0.2c0,2.4-0.9,5-2.7,7.8c-3.6,5.6-10.1,8.9-19.3,10
					c-1.4,0.2-2.7,0.3-3.9,0.3c-5.4,0-9.2-1.6-11.4-4.7c-1.2-1.7-1.8-3.5-1.8-5.4v-0.5c1,1,2.5,1.7,4.7,2.2c1.2,0.3,2.4,0.4,3.7,0.4
					c3.5,0,7.3-0.9,11.6-2.8c4.4-1.9,6.6-5.2,6.6-9.7c0-0.5,0-1-0.1-1.4c-0.2-2.2-1.1-4.2-2.7-6c-1.6-1.8-3.6-3.1-6.1-4.1
					c-2-0.7-4-1-6-1c-3.7,0-7.4,1.2-10.9,3.7c-3.1,2.2-5.7,5.3-7.5,9.2c-1.7,3.6-2.6,7.3-2.6,11.1v1c0.2,4.4,1.6,8.1,4.1,11.1
					c3,3.4,7.3,5.6,12.9,6.5c1.4,0.2,2.8,0.3,4.3,0.3c5.5,0,10.9-1.7,16.3-5.2C772,1525.3,774.7,1523,776.8,1520.5z"/>
			</g>
		</g>
	</g>
	<g>
		<defs>
			<rect id="SVGID_92_" x="-801.6" y="-753.7" width="4031.3" height="3023.3"/>
		</defs>
		<clipPath id="SVGID_93_">
			<use xlink:href="#SVGID_92_"  style="overflow:visible;"/>
		</clipPath>
		<g class="st55">
			<g class="st11">
				<path class="st53" d="M776.8,1520.5c0.1,0.8,0.2,1.7,0.2,2.6c0,2.2-0.5,4.5-1.4,6.9c-2.8,6.7-8.9,10.9-18.4,12.5
					c-2.4,0.4-4.7,0.7-7,0.7c-4.2,0-8-0.7-11.7-2.2c-5-2-9.1-5.2-12.5-9.7c-3-4.1-5-8.8-6-14c-0.5-2.3-0.7-4.6-0.7-6.8
					c0-2.5,0.3-5,1-7.4c1.7-6.4,5.3-11.9,10.6-16.4c2.7-2.2,5.2-3.8,7.5-4.8c2.4-1.2,5.5-2.1,9-2.7c1.7-0.3,3.5-0.4,5.1-0.4
					c5.2,0,10,1.3,14.5,3.9c5.9,3.5,9.7,8.1,11.5,13.8c0.7,2.3,1,4.3,1,6.2c0,0.6,0,1.1-0.1,1.6v0.2c0,2.4-0.9,5-2.7,7.8
					c-3.6,5.6-10.1,8.9-19.3,10c-1.4,0.2-2.7,0.3-3.9,0.3c-5.4,0-9.2-1.6-11.4-4.7c-1.2-1.7-1.8-3.5-1.8-5.4v-0.5
					c1,1,2.5,1.7,4.7,2.2c1.2,0.3,2.4,0.4,3.7,0.4c3.5,0,7.3-0.9,11.6-2.8c4.4-1.9,6.6-5.2,6.6-9.7c0-0.5,0-1-0.1-1.4
					c-0.2-2.2-1.1-4.2-2.7-6c-1.6-1.8-3.6-3.1-6.1-4.1c-2-0.7-4-1-6-1c-3.7,0-7.4,1.2-10.9,3.7c-3.1,2.2-5.7,5.3-7.5,9.2
					c-1.7,3.6-2.6,7.3-2.6,11.1v1c0.2,4.4,1.6,8.1,4.1,11.1c3,3.4,7.3,5.6,12.9,6.5c1.4,0.2,2.8,0.3,4.3,0.3
					c5.5,0,10.9-1.7,16.3-5.2C772,1525.3,774.7,1523,776.8,1520.5z"/>
			</g>
		</g>
	</g>
	<g>
		<defs>
			<rect id="SVGID_94_" x="-801.6" y="-753.7" width="4031.3" height="3023.3"/>
		</defs>
		<clipPath id="SVGID_95_">
			<use xlink:href="#SVGID_94_"  style="overflow:visible;"/>
		</clipPath>
		<g class="st56">
			<g class="st11">
				<path d="M790.9,1501.6c-0.1-0.8-0.2-1.7-0.2-2.6c0-2.2,0.5-4.5,1.4-6.9c2.8-6.7,8.9-10.9,18.4-12.5c2.4-0.4,4.8-0.7,7-0.7
					c4.2,0,8.1,0.7,11.7,2.2c5,2,9.1,5.2,12.5,9.7c3,4.1,5,8.8,6,14c0.5,2.3,0.7,4.6,0.7,6.8c0,2.5-0.3,5-1,7.4
					c-1.7,6.4-5.3,11.9-10.6,16.4c-2.7,2.2-5.2,3.8-7.5,4.8c-2.4,1.2-5.5,2.1-9,2.7c-1.7,0.3-3.5,0.4-5.1,0.4
					c-5.2,0-10-1.3-14.5-3.9c-5.9-3.4-9.7-8-11.5-13.8c-0.7-2.3-1-4.3-1-6.2c0-0.5,0-1,0.1-1.5v-0.2c0-2.5,0.9-5.1,2.7-7.9
					c3.6-5.6,10.1-8.9,19.3-10c1.4-0.2,2.7-0.3,3.9-0.3c5.4,0,9.2,1.6,11.4,4.7c1.2,1.7,1.8,3.5,1.8,5.4v0.5c-1-1-2.6-1.7-4.7-2.2
					c-1.2-0.3-2.5-0.5-3.9-0.5c-3.4,0-7.2,0.9-11.5,2.8c-4.4,1.9-6.6,5.2-6.6,9.7c0,0.5,0,1,0.1,1.4c0.2,2.2,1.1,4.2,2.7,6
					c1.6,1.8,3.6,3.1,6.1,4c2,0.7,4,1.1,6,1.1c3.7,0,7.3-1.3,10.9-3.8c3.1-2.2,5.6-5.3,7.5-9.2c1.7-3.7,2.6-7.5,2.6-11.3v-0.8
					c-0.2-4.4-1.6-8.1-4.2-11.1c-2.9-3.4-7.2-5.6-12.9-6.5c-1.4-0.2-2.9-0.3-4.3-0.3c-5.5,0-11,1.7-16.4,5.2
					C795.6,1496.8,792.9,1499.1,790.9,1501.6z"/>
			</g>
		</g>
	</g>
	<g>
		<defs>
			<rect id="SVGID_96_" x="-801.6" y="-753.7" width="4031.3" height="3023.3"/>
		</defs>
		<clipPath id="SVGID_97_">
			<use xlink:href="#SVGID_96_"  style="overflow:visible;"/>
		</clipPath>
		<g class="st57">
			<g class="st11">
				<path class="st53" d="M790.9,1501.6c-0.1-0.8-0.2-1.7-0.2-2.6c0-2.2,0.5-4.5,1.4-6.9c2.8-6.7,8.9-10.9,18.4-12.5
					c2.4-0.4,4.8-0.7,7-0.7c4.2,0,8.1,0.7,11.7,2.2c5,2,9.1,5.2,12.5,9.7c3,4.1,5,8.8,6,14c0.5,2.3,0.7,4.6,0.7,6.8
					c0,2.5-0.3,5-1,7.4c-1.7,6.4-5.3,11.9-10.6,16.4c-2.7,2.2-5.2,3.8-7.5,4.8c-2.4,1.2-5.5,2.1-9,2.7c-1.7,0.3-3.5,0.4-5.1,0.4
					c-5.2,0-10-1.3-14.5-3.9c-5.9-3.4-9.7-8-11.5-13.8c-0.7-2.3-1-4.3-1-6.2c0-0.5,0-1,0.1-1.5v-0.2c0-2.5,0.9-5.1,2.7-7.9
					c3.6-5.6,10.1-8.9,19.3-10c1.4-0.2,2.7-0.3,3.9-0.3c5.4,0,9.2,1.6,11.4,4.7c1.2,1.7,1.8,3.5,1.8,5.4v0.5c-1-1-2.6-1.7-4.7-2.2
					c-1.2-0.3-2.5-0.5-3.9-0.5c-3.4,0-7.2,0.9-11.5,2.8c-4.4,1.9-6.6,5.2-6.6,9.7c0,0.5,0,1,0.1,1.4c0.2,2.2,1.1,4.2,2.7,6
					c1.6,1.8,3.6,3.1,6.1,4c2,0.7,4,1.1,6,1.1c3.7,0,7.3-1.3,10.9-3.8c3.1-2.2,5.6-5.3,7.5-9.2c1.7-3.7,2.6-7.5,2.6-11.3v-0.8
					c-0.2-4.4-1.6-8.1-4.2-11.1c-2.9-3.4-7.2-5.6-12.9-6.5c-1.4-0.2-2.9-0.3-4.3-0.3c-5.5,0-11,1.7-16.4,5.2
					C795.6,1496.8,792.9,1499.1,790.9,1501.6z"/>
			</g>
		</g>
	</g>
	<g>
		<defs>
			<rect id="SVGID_98_" x="-801.6" y="-753.7" width="4031.3" height="3023.3"/>
		</defs>
		<clipPath id="SVGID_99_">
			<use xlink:href="#SVGID_98_"  style="overflow:visible;"/>
		</clipPath>
		<g class="st58">
			<g class="st11">
				<path d="M904.8,1483c3.5,2.1,5.8,4.3,6.9,6.7c1,1.9,1.4,4.1,1.4,6.6c0,0.5,0,1-0.1,1.5c-1.9-2.1-4.3-3.9-7.1-5.2
					c-4.8-2.3-10.2-3.5-16.1-3.5c-5.5,0-10.2,0.7-14.2,2c-4.8,1.6-7.1,3.8-7.1,6.6c0,2.8,2.2,4.6,6.6,5.6c1.1,0.3,6.6,1,16.5,2.1
					c8,0.9,14,2.6,17.9,5.2c3.9,2.7,5.9,6.3,5.9,10.9c0,7.2-3,12.7-8.9,16.5c-5.6,3.5-13.4,5.2-23.4,5.2c-12,0-19.7-3.8-23-11.5
					c-0.7-1.7-1.1-3.3-1.1-4.7v-0.5c2.8,1.8,6.2,3.3,10.3,4.5c3.8,1.1,7.9,1.7,12.3,1.7c6.5,0,11.8-0.7,15.9-2
					c4.9-1.6,7.3-4,7.3-7.2c0-3-2.2-5.2-6.6-6.6c-2.1-0.7-7.6-1.6-16.3-2.7c-9.6-1.2-15.7-2.4-18.4-3.7c-4.3-2-6.5-5.7-6.5-11.1
					c0-6.5,2.7-11.6,8.2-15.1c5.5-3.6,13.4-5.4,23.5-5.4C894.8,1478.9,900.2,1480.3,904.8,1483z"/>
			</g>
		</g>
	</g>
	<g>
		<defs>
			<rect id="SVGID_100_" x="-801.6" y="-753.7" width="4031.3" height="3023.3"/>
		</defs>
		<clipPath id="SVGID_101_">
			<use xlink:href="#SVGID_100_"  style="overflow:visible;"/>
		</clipPath>
		<g class="st59">
			<g class="st11">
				<path class="st53" d="M904.8,1483c3.5,2.1,5.8,4.3,6.9,6.7c1,1.9,1.4,4.1,1.4,6.6c0,0.5,0,1-0.1,1.5c-1.9-2.1-4.3-3.9-7.1-5.2
					c-4.8-2.3-10.2-3.5-16.1-3.5c-5.5,0-10.2,0.7-14.2,2c-4.8,1.6-7.1,3.8-7.1,6.6c0,2.8,2.2,4.6,6.6,5.6c1.1,0.3,6.6,1,16.5,2.1
					c8,0.9,14,2.6,17.9,5.2c3.9,2.7,5.9,6.3,5.9,10.9c0,7.2-3,12.7-8.9,16.5c-5.6,3.5-13.4,5.2-23.4,5.2c-12,0-19.7-3.8-23-11.5
					c-0.7-1.7-1.1-3.3-1.1-4.7v-0.5c2.8,1.8,6.2,3.3,10.3,4.5c3.8,1.1,7.9,1.7,12.3,1.7c6.5,0,11.8-0.7,15.9-2
					c4.9-1.6,7.3-4,7.3-7.2c0-3-2.2-5.2-6.6-6.6c-2.1-0.7-7.6-1.6-16.3-2.7c-9.6-1.2-15.7-2.4-18.4-3.7c-4.3-2-6.5-5.7-6.5-11.1
					c0-6.5,2.7-11.6,8.2-15.1c5.5-3.6,13.4-5.4,23.5-5.4C894.8,1478.9,900.2,1480.3,904.8,1483z"/>
			</g>
		</g>
	</g>
	<g>
		<defs>
			<rect id="SVGID_102_" x="-801.6" y="-753.7" width="4031.3" height="3023.3"/>
		</defs>
		<clipPath id="SVGID_103_">
			<use xlink:href="#SVGID_102_"  style="overflow:visible;"/>
		</clipPath>
	</g>
	<g>
		<defs>
			<rect id="SVGID_104_" x="-801.6" y="-753.7" width="4031.3" height="3023.3"/>
		</defs>
		<clipPath id="SVGID_105_">
			<use xlink:href="#SVGID_104_"  style="overflow:visible;"/>
		</clipPath>
	</g>
</g>
<g>
	<g>
		<defs>
			<rect id="SVGID_106_" x="-801.6" y="-753.7" width="4031.3" height="3023.3"/>
		</defs>
		<clipPath id="SVGID_107_">
			<use xlink:href="#SVGID_106_"  style="overflow:visible;"/>
		</clipPath>
		<g class="st60">
			<g class="st11">
				<path class="st12" d="M976.1,1572.8c-3.4-0.3-6.8-2-10.2-5c-7-6.2-10.8-16.3-11.5-30.3c-0.2-3.2-0.3-6.3-0.3-9.2
					c0-14.2,1.9-25.2,5.6-32.7c5.4-11.1,15.3-16.7,29.7-16.7c8.6,0,15.9,3.8,22,11.4c5.3,6.6,7.9,14.2,7.9,22.7
					c0,1.4-0.1,2.9-0.2,4.4c-0.8,8.5-5.1,15.3-12.9,20.5c-5.2,3.5-10.3,5.2-15.3,5.2c-2.2,0-4.4-0.3-6.6-1c-6-1.9-9.7-5.6-11.3-11.2
					c-0.5-1.7-0.7-3.4-0.7-5c0-1,0.1-1.9,0.3-2.8c1.7,2.2,4,4.2,6.8,5.8c3.1,1.8,6.2,2.7,9.2,2.7c2.6,0,5.2-0.6,7.7-1.9
					c4.3-2.1,7.3-5.2,8.9-9.4c0.9-2.3,1.4-4.7,1.4-7.3c0-1.5-0.2-3.1-0.5-4.7c-0.7-4.1-2.3-7.8-4.7-11.2c-2.4-3.4-5-5.6-7.9-6.7
					c-2.1-0.7-4.2-1.1-6.3-1.1c-1,0-2.1,0.1-3.1,0.3c-3.5,0.7-6.6,2.4-9.2,5.1c-5.8,6-8.7,16-8.7,29.9c0,1.7,0,3.6,0.1,5.4
					C967.1,1543.8,970.4,1558.1,976.1,1572.8z"/>
			</g>
		</g>
	</g>
	<g>
		<defs>
			<rect id="SVGID_108_" x="-801.6" y="-753.7" width="4031.3" height="3023.3"/>
		</defs>
		<clipPath id="SVGID_109_">
			<use xlink:href="#SVGID_108_"  style="overflow:visible;"/>
		</clipPath>
		<g class="st61">
			<g class="st11">
				<path class="st62" d="M976.1,1572.8c-3.4-0.3-6.8-2-10.2-5c-7-6.2-10.8-16.3-11.5-30.3c-0.2-3.2-0.3-6.3-0.3-9.2
					c0-14.2,1.9-25.2,5.6-32.7c5.4-11.1,15.3-16.7,29.7-16.7c8.6,0,15.9,3.8,22,11.4c5.3,6.6,7.9,14.2,7.9,22.7
					c0,1.4-0.1,2.9-0.2,4.4c-0.8,8.5-5.1,15.3-12.9,20.5c-5.2,3.5-10.3,5.2-15.3,5.2c-2.2,0-4.4-0.3-6.6-1c-6-1.9-9.7-5.6-11.3-11.2
					c-0.5-1.7-0.7-3.4-0.7-5c0-1,0.1-1.9,0.3-2.8c1.7,2.2,4,4.2,6.8,5.8c3.1,1.8,6.2,2.7,9.2,2.7c2.6,0,5.2-0.6,7.7-1.9
					c4.3-2.1,7.3-5.2,8.9-9.4c0.9-2.3,1.4-4.7,1.4-7.3c0-1.5-0.2-3.1-0.5-4.7c-0.7-4.1-2.3-7.8-4.7-11.2c-2.4-3.4-5-5.6-7.9-6.7
					c-2.1-0.7-4.2-1.1-6.3-1.1c-1,0-2.1,0.1-3.1,0.3c-3.5,0.7-6.6,2.4-9.2,5.1c-5.8,6-8.7,16-8.7,29.9c0,1.7,0,3.6,0.1,5.4
					C967.1,1543.8,970.4,1558.1,976.1,1572.8z"/>
			</g>
		</g>
	</g>
</g>
<g>
	<g>
		<defs>
			<rect id="SVGID_110_" x="-801.6" y="-753.7" width="4031.3" height="3023.3"/>
		</defs>
		<clipPath id="SVGID_111_">
			<use xlink:href="#SVGID_110_"  style="overflow:visible;"/>
		</clipPath>
		<g class="st63">
			<g class="st11">
				<path d="M1065.4,1479c3.2,0,5.8,0.2,7.7,0.6c-0.4,1.9-0.9,3.7-1.8,5.6c-1.7,3.7-4,5.6-6.6,5.6c-7.4,0-13.2,2.2-17.4,6.7
					c-4,4.2-6,9.9-6,16.8c0,13.5,0.8,23.2,2.5,29h-0.4c-2.6,0-5.2-1.2-7.7-3.7c-5.4-5.3-8.1-15.1-8.1-29.2c0-14.1,2.2-23.6,6.7-28.4
					c1.4-1.5,3-2.4,4.7-2.8c0.6-0.1,1.1-0.2,1.5-0.2c0.2,0,0.4,0,0.6,0.1c-0.7,1.4-1.1,3.5-1.1,6.2c0,1,0.1,2.2,0.2,3.5
					C1046.3,1482.2,1054.7,1479,1065.4,1479z"/>
			</g>
		</g>
	</g>
	<g>
		<defs>
			<rect id="SVGID_112_" x="-801.6" y="-753.7" width="4031.3" height="3023.3"/>
		</defs>
		<clipPath id="SVGID_113_">
			<use xlink:href="#SVGID_112_"  style="overflow:visible;"/>
		</clipPath>
		<g class="st64">
			<g class="st11">
				<path class="st53" d="M1065.4,1479c3.2,0,5.8,0.2,7.7,0.6c-0.4,1.9-0.9,3.7-1.8,5.6c-1.7,3.7-4,5.6-6.6,5.6
					c-7.4,0-13.2,2.2-17.4,6.7c-4,4.2-6,9.9-6,16.8c0,13.5,0.8,23.2,2.5,29h-0.4c-2.6,0-5.2-1.2-7.7-3.7c-5.4-5.3-8.1-15.1-8.1-29.2
					c0-14.1,2.2-23.6,6.7-28.4c1.4-1.5,3-2.4,4.7-2.8c0.6-0.1,1.1-0.2,1.5-0.2c0.2,0,0.4,0,0.6,0.1c-0.7,1.4-1.1,3.5-1.1,6.2
					c0,1,0.1,2.2,0.2,3.5C1046.3,1482.2,1054.7,1479,1065.4,1479z"/>
			</g>
		</g>
	</g>
	<g>
		<defs>
			<rect id="SVGID_114_" x="-801.6" y="-753.7" width="4031.3" height="3023.3"/>
		</defs>
		<clipPath id="SVGID_115_">
			<use xlink:href="#SVGID_114_"  style="overflow:visible;"/>
		</clipPath>
		<g class="st65">
			<g class="st11">
				<path d="M1113.7,1543.2c-8.9,0-16.5-3.1-22.8-9.4c-6.3-6.3-9.4-13.8-9.4-22.8c0-8.9,3.1-16.4,9.4-22.7
					c6.3-6.3,13.8-9.4,22.8-9.4c8.9,0,16.4,3.1,22.7,9.4c6.3,6.3,9.4,13.8,9.4,22.7c0,8.9-3.1,16.5-9.4,22.8
					C1130.1,1540.1,1122.6,1543.2,1113.7,1543.2z M1113.7,1488.8c-6,0-10.9,2.2-14.6,6.5c-3.5,4.2-5.3,9.4-5.3,15.7
					c0,6.3,1.8,11.6,5.3,15.8c3.7,4.3,8.6,6.5,14.6,6.5c6,0,10.8-2.2,14.6-6.5c3.5-4.2,5.3-9.5,5.3-15.8c0-6.3-1.8-11.5-5.3-15.7
					C1124.5,1491,1119.7,1488.8,1113.7,1488.8z"/>
			</g>
		</g>
	</g>
	<g>
		<defs>
			<rect id="SVGID_116_" x="-801.6" y="-753.7" width="4031.3" height="3023.3"/>
		</defs>
		<clipPath id="SVGID_117_">
			<use xlink:href="#SVGID_116_"  style="overflow:visible;"/>
		</clipPath>
		<g class="st66">
			<g class="st11">
				<path class="st53" d="M1113.7,1543.2c-8.9,0-16.5-3.1-22.8-9.4c-6.3-6.3-9.4-13.8-9.4-22.8c0-8.9,3.1-16.4,9.4-22.7
					c6.3-6.3,13.8-9.4,22.8-9.4c8.9,0,16.4,3.1,22.7,9.4c6.3,6.3,9.4,13.8,9.4,22.7c0,8.9-3.1,16.5-9.4,22.8
					C1130.1,1540.1,1122.6,1543.2,1113.7,1543.2z M1113.7,1488.8c-6,0-10.9,2.2-14.6,6.5c-3.5,4.2-5.3,9.4-5.3,15.7
					c0,6.3,1.8,11.6,5.3,15.8c3.7,4.3,8.6,6.5,14.6,6.5c6,0,10.8-2.2,14.6-6.5c3.5-4.2,5.3-9.5,5.3-15.8c0-6.3-1.8-11.5-5.3-15.7
					C1124.5,1491,1119.7,1488.8,1113.7,1488.8z"/>
			</g>
		</g>
	</g>
	<g>
		<defs>
			<rect id="SVGID_118_" x="-801.6" y="-753.7" width="4031.3" height="3023.3"/>
		</defs>
		<clipPath id="SVGID_119_">
			<use xlink:href="#SVGID_118_"  style="overflow:visible;"/>
		</clipPath>
		<g class="st67">
			<g class="st11">
				<path d="M1167.3,1521.5c0,13.1,1.1,30.3,3.2,51.7h-0.5c-2.6,0-5.2-1.8-7.7-5.5c-5.4-7.8-8.1-22.1-8.1-42.7
					c0-20.7,2.6-34.5,7.7-41.6c1.6-2.2,3.4-3.6,5.4-4.1c0.6-0.2,1.2-0.3,1.6-0.3c0.3,0,0.5,0,0.7,0.1
					C1168,1494.2,1167.3,1508.4,1167.3,1521.5z M1158.4,1476.2c-1.2-1.7-1.8-3.9-1.8-6.4c0-0.5,0-1,0.1-1.4c0.3-3.1,1-5.7,2.3-7.6
					c0.9-1.4,2.2-2.3,3.9-2.6c0.4-0.1,0.9-0.1,1.3-0.1c1.1,0,2.2,0.3,3.2,1c1.4,0.9,2.3,2.2,2.6,3.8c0.1,0.4,0.1,0.9,0.1,1.3
					c0,1.2-0.3,2.3-1,3.3c-0.5,0.7-1.2,1.4-2,1.9h0.1L1158.4,1476.2z"/>
			</g>
		</g>
	</g>
	<g>
		<defs>
			<rect id="SVGID_120_" x="-801.6" y="-753.7" width="4031.3" height="3023.3"/>
		</defs>
		<clipPath id="SVGID_121_">
			<use xlink:href="#SVGID_120_"  style="overflow:visible;"/>
		</clipPath>
		<g class="st68">
			<g class="st11">
				<path class="st53" d="M1167.3,1521.5c0,13.1,1.1,30.3,3.2,51.7h-0.5c-2.6,0-5.2-1.8-7.7-5.5c-5.4-7.8-8.1-22.1-8.1-42.7
					c0-20.7,2.6-34.5,7.7-41.6c1.6-2.2,3.4-3.6,5.4-4.1c0.6-0.2,1.2-0.3,1.6-0.3c0.3,0,0.5,0,0.7,0.1
					C1168,1494.2,1167.3,1508.4,1167.3,1521.5z M1158.4,1476.2c-1.2-1.7-1.8-3.9-1.8-6.4c0-0.5,0-1,0.1-1.4c0.3-3.1,1-5.7,2.3-7.6
					c0.9-1.4,2.2-2.3,3.9-2.6c0.4-0.1,0.9-0.1,1.3-0.1c1.1,0,2.2,0.3,3.2,1c1.4,0.9,2.3,2.2,2.6,3.8c0.1,0.4,0.1,0.9,0.1,1.3
					c0,1.2-0.3,2.3-1,3.3c-0.5,0.7-1.2,1.4-2,1.9h0.1L1158.4,1476.2z"/>
			</g>
		</g>
	</g>
	<g>
		<defs>
			<rect id="SVGID_122_" x="-801.6" y="-753.7" width="4031.3" height="3023.3"/>
		</defs>
		<clipPath id="SVGID_123_">
			<use xlink:href="#SVGID_122_"  style="overflow:visible;"/>
		</clipPath>
		<g class="st69">
			<g class="st11">
				<path d="M1236.3,1520.5c0.1,0.8,0.2,1.7,0.2,2.6c0,2.2-0.5,4.5-1.4,6.9c-2.8,6.7-8.9,10.9-18.4,12.5c-2.4,0.4-4.7,0.7-7,0.7
					c-4.2,0-8-0.7-11.7-2.2c-5-2-9.1-5.2-12.5-9.7c-3-4.1-5-8.8-6-14c-0.5-2.3-0.7-4.6-0.7-6.8c0-2.5,0.3-5,1-7.4
					c1.7-6.4,5.3-11.9,10.6-16.4c2.7-2.2,5.2-3.8,7.5-4.8c2.4-1.2,5.5-2.1,9-2.7c1.7-0.3,3.5-0.4,5.1-0.4c5.2,0,10,1.3,14.5,3.9
					c5.9,3.5,9.7,8.1,11.5,13.8c0.7,2.3,1,4.3,1,6.2c0,0.6,0,1.1-0.1,1.6v0.2c0,2.4-0.9,5-2.7,7.8c-3.6,5.6-10.1,8.9-19.3,10
					c-1.4,0.2-2.7,0.3-3.9,0.3c-5.4,0-9.2-1.6-11.4-4.7c-1.2-1.7-1.8-3.5-1.8-5.4v-0.5c1,1,2.5,1.7,4.7,2.2c1.2,0.3,2.4,0.4,3.7,0.4
					c3.5,0,7.3-0.9,11.6-2.8c4.4-1.9,6.6-5.2,6.6-9.7c0-0.5,0-1-0.1-1.4c-0.2-2.2-1.1-4.2-2.7-6c-1.6-1.8-3.6-3.1-6.1-4.1
					c-2-0.7-4-1-6-1c-3.7,0-7.4,1.2-10.9,3.7c-3.1,2.2-5.7,5.3-7.5,9.2c-1.7,3.6-2.6,7.3-2.6,11.1v1c0.2,4.4,1.6,8.1,4.1,11.1
					c3,3.4,7.3,5.6,12.9,6.5c1.4,0.2,2.8,0.3,4.3,0.3c5.5,0,10.9-1.7,16.3-5.2C1231.5,1525.3,1234.2,1523,1236.3,1520.5z"/>
			</g>
		</g>
	</g>
	<g>
		<defs>
			<rect id="SVGID_124_" x="-801.6" y="-753.7" width="4031.3" height="3023.3"/>
		</defs>
		<clipPath id="SVGID_125_">
			<use xlink:href="#SVGID_124_"  style="overflow:visible;"/>
		</clipPath>
		<g class="st70">
			<g class="st11">
				<path class="st53" d="M1236.3,1520.5c0.1,0.8,0.2,1.7,0.2,2.6c0,2.2-0.5,4.5-1.4,6.9c-2.8,6.7-8.9,10.9-18.4,12.5
					c-2.4,0.4-4.7,0.7-7,0.7c-4.2,0-8-0.7-11.7-2.2c-5-2-9.1-5.2-12.5-9.7c-3-4.1-5-8.8-6-14c-0.5-2.3-0.7-4.6-0.7-6.8
					c0-2.5,0.3-5,1-7.4c1.7-6.4,5.3-11.9,10.6-16.4c2.7-2.2,5.2-3.8,7.5-4.8c2.4-1.2,5.5-2.1,9-2.7c1.7-0.3,3.5-0.4,5.1-0.4
					c5.2,0,10,1.3,14.5,3.9c5.9,3.5,9.7,8.1,11.5,13.8c0.7,2.3,1,4.3,1,6.2c0,0.6,0,1.1-0.1,1.6v0.2c0,2.4-0.9,5-2.7,7.8
					c-3.6,5.6-10.1,8.9-19.3,10c-1.4,0.2-2.7,0.3-3.9,0.3c-5.4,0-9.2-1.6-11.4-4.7c-1.2-1.7-1.8-3.5-1.8-5.4v-0.5
					c1,1,2.5,1.7,4.7,2.2c1.2,0.3,2.4,0.4,3.7,0.4c3.5,0,7.3-0.9,11.6-2.8c4.4-1.9,6.6-5.2,6.6-9.7c0-0.5,0-1-0.1-1.4
					c-0.2-2.2-1.1-4.2-2.7-6c-1.6-1.8-3.6-3.1-6.1-4.1c-2-0.7-4-1-6-1c-3.7,0-7.4,1.2-10.9,3.7c-3.1,2.2-5.7,5.3-7.5,9.2
					c-1.7,3.6-2.6,7.3-2.6,11.1v1c0.2,4.4,1.6,8.1,4.1,11.1c3,3.4,7.3,5.6,12.9,6.5c1.4,0.2,2.8,0.3,4.3,0.3
					c5.5,0,10.9-1.7,16.3-5.2C1231.5,1525.3,1234.2,1523,1236.3,1520.5z"/>
			</g>
		</g>
	</g>
	<g>
		<defs>
			<rect id="SVGID_126_" x="-801.6" y="-753.7" width="4031.3" height="3023.3"/>
		</defs>
		<clipPath id="SVGID_127_">
			<use xlink:href="#SVGID_126_"  style="overflow:visible;"/>
		</clipPath>
		<g class="st71">
			<g class="st11">
				<path d="M1300,1523.2c0.2,1,0.3,2.1,0.3,3.1c0,2.3-0.5,4.6-1.4,6.9c-2.7,6.7-9,10-18.9,10c-10,0-17.7-2.3-23.2-6.8
					c-6.6-5.4-9.8-13.9-9.8-25.4c0-11.1,3.8-19.5,11.5-25.2c6-4.5,13.2-6.8,21.6-6.8c10.6,0,17.1,3.3,19.5,10c0.7,1.9,1,3.8,1,5.7
					c0,1.4-0.2,2.8-0.6,4.3c-1-1.4-2.5-2.8-4.7-4.3c-4.3-2.8-9.5-4.3-15.4-4.3c-6.4,0-11.6,2.5-15.5,7.5c-3.2,4.1-4.8,8.5-4.8,13.1
					c0,5.1,1.4,9.7,4.1,13.8c3.7,5.5,9,8.2,16.1,8.2c6.6,0,12-1.6,16.1-4.9C1297.8,1526.5,1299.2,1524.8,1300,1523.2z"/>
			</g>
		</g>
	</g>
	<g>
		<defs>
			<rect id="SVGID_128_" x="-801.6" y="-753.7" width="4031.3" height="3023.3"/>
		</defs>
		<clipPath id="SVGID_129_">
			<use xlink:href="#SVGID_128_"  style="overflow:visible;"/>
		</clipPath>
		<g class="st72">
			<g class="st11">
				<path class="st53" d="M1300,1523.2c0.2,1,0.3,2.1,0.3,3.1c0,2.3-0.5,4.6-1.4,6.9c-2.7,6.7-9,10-18.9,10c-10,0-17.7-2.3-23.2-6.8
					c-6.6-5.4-9.8-13.9-9.8-25.4c0-11.1,3.8-19.5,11.5-25.2c6-4.5,13.2-6.8,21.6-6.8c10.6,0,17.1,3.3,19.5,10c0.7,1.9,1,3.8,1,5.7
					c0,1.4-0.2,2.8-0.6,4.3c-1-1.4-2.5-2.8-4.7-4.3c-4.3-2.8-9.5-4.3-15.4-4.3c-6.4,0-11.6,2.5-15.5,7.5c-3.2,4.1-4.8,8.5-4.8,13.1
					c0,5.1,1.4,9.7,4.1,13.8c3.7,5.5,9,8.2,16.1,8.2c6.6,0,12-1.6,16.1-4.9C1297.8,1526.5,1299.2,1524.8,1300,1523.2z"/>
			</g>
		</g>
	</g>
	<g>
		<defs>
			<rect id="SVGID_130_" x="-801.6" y="-753.7" width="4031.3" height="3023.3"/>
		</defs>
		<clipPath id="SVGID_131_">
			<use xlink:href="#SVGID_130_"  style="overflow:visible;"/>
		</clipPath>
		<g class="st73">
			<g class="st11">
				<path d="M1360.7,1525.6c0.6,1.6,0.9,3.1,0.9,4.7c0,1.4-0.2,2.7-0.7,4.1c-1.8,5.9-7.5,8.8-17.1,8.8c-14.4,0-24.3-5.6-29.8-16.7
					c-3.7-7.6-5.6-18.5-5.6-32.8c0-2.9,0.1-6,0.3-9.2c0.7-14.1,4.5-24.2,11.5-30.4c3.5-3.1,6.9-4.8,10.3-5
					c-4.6,8.3-7.4,18.3-8.3,30.1c8.7,5.3,16.9,8,24.8,8h0.7c4.1-0.1,7.2-0.7,9.5-1.9c-0.5,2.7-1.9,5.2-4.4,7.4
					c-3.1,2.8-7.1,4.1-12.2,4.1c-3,0-6.3-0.5-10-1.4c-3.6-0.9-6.9-2.3-10-4v0.7c-0.1,1.9-0.1,3.8-0.1,5.5c0,13.7,2.8,23.6,8.5,29.6
					c2.6,2.8,5.7,4.7,9.2,5.5c1.6,0.4,3.5,0.6,5.6,0.6c1.7,0,3.6-0.1,5.6-0.4c3.5-0.4,6.4-1.8,8.7-4.1
					C1359.3,1527.7,1360.1,1526.6,1360.7,1525.6z"/>
			</g>
		</g>
	</g>
	<g>
		<defs>
			<rect id="SVGID_132_" x="-801.6" y="-753.7" width="4031.3" height="3023.3"/>
		</defs>
		<clipPath id="SVGID_133_">
			<use xlink:href="#SVGID_132_"  style="overflow:visible;"/>
		</clipPath>
		<g class="st74">
			<g class="st11">
				<path class="st53" d="M1360.7,1525.6c0.6,1.6,0.9,3.1,0.9,4.7c0,1.4-0.2,2.7-0.7,4.1c-1.8,5.9-7.5,8.8-17.1,8.8
					c-14.4,0-24.3-5.6-29.8-16.7c-3.7-7.6-5.6-18.5-5.6-32.8c0-2.9,0.1-6,0.3-9.2c0.7-14.1,4.5-24.2,11.5-30.4
					c3.5-3.1,6.9-4.8,10.3-5c-4.6,8.3-7.4,18.3-8.3,30.1c8.7,5.3,16.9,8,24.8,8h0.7c4.1-0.1,7.2-0.7,9.5-1.9
					c-0.5,2.7-1.9,5.2-4.4,7.4c-3.1,2.8-7.1,4.1-12.2,4.1c-3,0-6.3-0.5-10-1.4c-3.6-0.9-6.9-2.3-10-4v0.7c-0.1,1.9-0.1,3.8-0.1,5.5
					c0,13.7,2.8,23.6,8.5,29.6c2.6,2.8,5.7,4.7,9.2,5.5c1.6,0.4,3.5,0.6,5.6,0.6c1.7,0,3.6-0.1,5.6-0.4c3.5-0.4,6.4-1.8,8.7-4.1
					C1359.3,1527.7,1360.1,1526.6,1360.7,1525.6z"/>
			</g>
		</g>
	</g>
</g>
<g>
	<g>
		<defs>
			<rect id="SVGID_134_" x="-801.6" y="-753.7" width="4031.3" height="3023.3"/>
		</defs>
		<clipPath id="SVGID_135_">
			<use xlink:href="#SVGID_134_"  style="overflow:visible;"/>
		</clipPath>
		<g class="st75">
			<text transform="matrix(1 0 0 1 1365.7524 1543.224)" class="st48 st76"> </text>
		</g>
	</g>
	<g>
		<defs>
			<rect id="SVGID_136_" x="-801.6" y="-753.7" width="4031.3" height="3023.3"/>
		</defs>
		<clipPath id="SVGID_137_">
			<use xlink:href="#SVGID_136_"  style="overflow:visible;"/>
		</clipPath>
		<g class="st77">
			<text transform="matrix(1 0 0 1 1365.7524 1543.224)" class="st53 st48 st76"> </text>
		</g>
	</g>
</g>
<line class="st78" x1="681.1" y1="1131.8" x2="402.4" y2="1208"/>
<line class="st78" x1="599.7" y1="1153.5" x2="428.5" y2="1200.7"/>
<g>
	<g>
		<defs>
			<polyline id="SVGID_138_" points="-801.6,-753.7 3229.7,-753.7 3229.7,2269.6 -801.6,2269.6 			"/>
		</defs>
		<clipPath id="SVGID_139_">
			<use xlink:href="#SVGID_138_"  style="overflow:visible;"/>
		</clipPath>
		<polygon class="st79" points="534,1163 540.2,1191.6 431.6,1215 425.4,1186.3 		"/>
	</g>
</g>
<g>
	<g>
		<defs>
			<polyline id="SVGID_140_" points="-801.6,-753.7 3229.7,-753.7 3229.7,2269.6 -801.6,2269.6 			"/>
		</defs>
		<clipPath id="SVGID_141_">
			<use xlink:href="#SVGID_140_"  style="overflow:visible;"/>
		</clipPath>
		<polygon class="st80" points="534,1163 540.2,1191.6 431.6,1215 425.4,1186.3 		"/>
	</g>
</g>
<g>
	<g>
		<defs>
			<polyline id="SVGID_142_" points="-801.6,-753.7 3229.7,-753.7 3229.7,2269.6 -801.6,2269.6 			"/>
		</defs>
		<clipPath id="SVGID_143_">
			<use xlink:href="#SVGID_142_"  style="overflow:visible;"/>
		</clipPath>
		<rect x="199.2" y="1228.7" class="st81" width="887.9" height="17"/>
	</g>
</g>
<polyline class="st82" points="-1990.1,983.9 146.1,-2434.7 2709.9,-832.6 573.7,2585.9 "/>
<polyline class="st82" points="-1990.1,983.9 146.1,-2434.7 2709.9,-832.6 573.7,2585.9 "/>
<g>
	<g>
		<defs>
			<polyline id="SVGID_144_" points="-1486.3,2194.1 1214.3,-799.1 3459.1,1226.2 758.5,4219.4 			"/>
		</defs>
		<clipPath id="SVGID_145_">
			<use xlink:href="#SVGID_144_"  style="overflow:visible;"/>
		</clipPath>
	</g>
</g>
<g>
	<g>
		<defs>
			<polyline id="SVGID_146_" points="-1486.3,2194.1 1214.3,-799.1 3459.1,1226.2 758.5,4219.4 			"/>
		</defs>
		<clipPath id="SVGID_147_">
			<use xlink:href="#SVGID_146_"  style="overflow:visible;"/>
		</clipPath>
	</g>
</g>
<polyline class="st82" points="-801.6,-753.7 3229.7,-753.7 3229.7,2269.6 -801.6,2269.6 "/>
<g>
	<g>
		<defs>
			<polyline id="SVGID_148_" points="-801.6,-753.7 3229.7,-753.7 3229.7,2269.6 -801.6,2269.6 			"/>
		</defs>
		<clipPath id="SVGID_149_">
			<use xlink:href="#SVGID_148_"  style="overflow:visible;"/>
		</clipPath>
	</g>
</g>
<g>
	<path d="M1395.2,1206.1c-65.9,30.5-131.8,30.3-198.3-0.3c-3.7,0.7-7.3,3.1-11,5c-7.9,4.1-16.1,7.1-24.7,9.2
		c-27.3,6.8-54.7,10.4-83,7.4c-23.2-2.4-45.6-7.1-67-16.3c-4.5-1.9-8.1-5.5-13.2-6c0,15.2,0,30.4,0,45.7c15.3,8.6,31.9,13.2,49,16.8
		c23.8,4.9,47.9,3.2,71.9,3.5c10.1,0.1,20-1.4,29.9-3.1c17.1-3.1,33.7-7.9,49.3-16.1c5.9,4.2,12.9,5.6,19.1,8.8
		c8.5,4.4,17.5,6.8,26.9,8.5c23.5,4.1,47.2,4.6,70.9,3.6c19.1-0.8,38.1-3.2,56.6-8.8c9.4-2.8,17.9-7.4,24.6-10
		c61,23.1,120,25.7,178.7,8.1c0-15.5,0-30.9,0-46.4C1514.5,1237.3,1454.7,1234.4,1395.2,1206.1z"/>
</g>
<g>
	<g>
		<path class="st83" d="M161.9,138.3c-2.2,0.7-3.8,3.1-6.6,0.5c-3.7-3.6-10.9-2-13.1,2.1c-2.6,4.7-1,11.9,3.1,14.9
			c2.1,1.4,4.9,2,6.3,0.4C155.7,150.8,165.2,149.1,161.9,138.3z"/>
		<g>
			<g>
				<path d="M660.2,92c-3.8,0.4-3.2,3-2.9,5.1c0.4,2.5,0.9,5.1,4.4,4.2c3-0.8,3.7-2.5,3.1-5.5C664.2,92.4,662.6,91.3,660.2,92z"/>
				<path d="M656.2,74.7c-2.9,0.7-2,3.2-1.7,5.3c0.4,2.5,1.2,4.2,4.2,3.3c2.5-0.7,3.4-2.2,2.8-5C660.9,75.2,659,74.4,656.2,74.7z"/>
				<path d="M836.3,149.9c-14.6-5.1-29.8-4.4-44.8-5.6c-15.4-1.2-30.7-1.9-46.1-2.6c-2.9-0.1-5.5-1-8.1-2c-10-4.2-20.2-7.9-30-12.6
					c-8.3-3.9-16.1-4.9-25-2.4c-9.7,2.8-13-0.2-14.5-10.5c-0.2-1.5-0.3-3.2-1-4.4c-1.2-2.4-3.4-4.2-5.8-3.1
					c-2.3,1.1-0.7,3.3-0.6,5.1c0,0.3,0.1,0.5,0.1,0.8c2.4,10.8,2.4,10.2-7.7,10.6c-20,0.9-40,2.7-59.6,7.6c-3.8,1-7.1,2.6-9.7-3.7
					c-2.1-5.1-8.7-4.1-13-3.3c-27.6,5-54.8,11-78.6,28.3c-4.3,3.2-6.8,6-4.8,11.8c1.6,4.8,0.1,7.1-4.9,8.1
					c-26,5-51.1,13.4-76.6,20.6c-29.8,8.5-59.7,16.8-89.5,24.9c-14.1,3.9-28,8.9-42.1,12.7c-11.4,3.2-20-0.4-27.3-9.6
					c-18.4-23.5-36.7-47-55.2-70.5c-11.6-14.8-23.1-29.5-34.7-44.3c-4.7-6-10.1-8.3-17.7-6c-9.6,2.9-19.3,5.3-29.2,6.7
					c-9.2,1.3-17,5.6-24.7,10.5c-3.5,2.2-4.9,4.4-2.9,9.9c10.8,29.3,20.6,58.9,30.9,88.4c8.6,24.7,17.5,49.3,26.1,74
					c1.6,4.6,5,5,8.5,5.4c28.1,3.1,56.3,2.1,84.5-0.1c60.4-4.7,120.8-8.9,181.2-13.4c12.2-0.9,24.3-2,36.5-3c1.4-0.2,3.7-1.2,4,0.2
					c1.9,7.7,6.3,2.9,9.5,2.3c5.4-1,10.7-3.1,16-4.3c12.8-2.5,24-11.4,37.4-11.7c15,0.3,30.1-2.6,45.9-0.3
					c-6.5,12.2-5.4,22,2.9,28.3c6.5,4.9,17.3,3.5,22.2-2.8c6.7-8.5,5.1-19.2-4.5-29.1c8.8-4.6,16.3-10.5,26.5-12.4
					c22.1-4.1,44.5-8.4,66.1-15c24.2-7.3,49.2-11.1,73.3-18.5c1.7-0.6,3.3-1.8,4.1,0.9c1,3.1,1.6,5.8-1,9.1
					c-6.4,7.7-4.9,18,2.5,23.1c4.9,3.3,9.9,4.4,14.7,0.6c5.3-4.2,8.1-9.8,6.1-17.4c-1.7-6.6-5.8-9.8-11.5-10.9
					c-1.8-0.4-3.8,0-5.5-1.1c-2.1-1.1-2.3-3.2-2.3-5.2c0-2.2,1.9-1.9,3.2-2.3c24.4-6.8,48-16.2,71.5-25.8c3.5-1.4,6.7-3.6,9.9-5.6
					c5-3,8.3-8.5,8.2-14.5C848.9,157,843.1,152.3,836.3,149.9z M720.5,158.6c-0.4,2.2-2.4,1.7-3.9,2.1c-0.5,0.1-1.7,0.5-2.1,0.5
					c-17.5,3.8-17,5.6-19.9-9.5c0-0.3-0.1-0.7-0.1-0.9c-0.3-2.3-2.2-5.2,0.1-6.5c3.1-1.8,7-3.2,10.6,0.1c3.3,3,6.7,5.6,10.7,7.7
					C718.8,153.5,721.1,155.4,720.5,158.6z"/>
				<path class="st83" d="M672.6,157.2c4.7-7,1.1-11.9-1-16.9C669.4,145.5,670.4,150.8,672.6,157.2z"/>
				<path class="st83" d="M673.3,167.3c0.8,1.7,0.6,5,3.7,4c2.5-0.7,1.9-3.1,1.5-5s-0.6-4.2-3.3-3.8
					C672.5,162.9,673.2,165.3,673.3,167.3z"/>
				<path class="st83" d="M677.3,184.9c0.7,1.5,0.2,4.1,2.6,3.7c2.4-0.5,2.3-2.7,1.8-4.9c-0.3-1.8-0.7-3.7-2.9-3.5
					C675.6,180.7,677.4,183.3,677.3,184.9z"/>
			</g>
		</g>
	</g>
	<path d="M574,273.4c1.4,1.3-0.2,5,3.4,4.3c0.5-0.1,1.2-1.6,1-2.4c-0.6-3-2.3-3.4-4.6-1.8C573.8,273.7,574,273.4,574,273.4z"/>
</g>
<g>
	<g>
		<defs>
			<polyline id="SVGID_150_" points="-801.6,-749.7 3229.7,-749.7 3229.7,2273.6 -801.6,2273.6 			"/>
		</defs>
		<clipPath id="SVGID_151_">
			<use xlink:href="#SVGID_150_"  style="overflow:visible;"/>
		</clipPath>
	</g>
</g>
<g>
	<g>
		<defs>
			<polyline id="SVGID_152_" points="-801.6,-749.7 3229.7,-749.7 3229.7,2273.6 -801.6,2273.6 			"/>
		</defs>
		<clipPath id="SVGID_153_">
			<use xlink:href="#SVGID_152_"  style="overflow:visible;"/>
		</clipPath>
	</g>
</g>
<polyline class="st82" points="-1276.8,2120.8 1434.3,-862.8 3671.8,1170.4 960.7,4154 "/>
<g>
	<g>
		<defs>
			<polyline id="SVGID_154_" points="-1276.8,2120.8 1434.3,-862.8 3671.8,1170.4 960.7,4154 			"/>
		</defs>
		<clipPath id="SVGID_155_">
			<use xlink:href="#SVGID_154_"  style="overflow:visible;"/>
		</clipPath>
	</g>
</g>
<polyline class="st82" points="-835.1,-680.3 3195.8,-749.3 3248.1,2244.4 -782.8,2313.4 "/>
<polyline class="st82" points="-1429.2,455.6 2203.4,-1292.3 3514.3,1432 -118.3,3179.9 "/>
<g>
	<path d="M1360.7,1219.8c-57,14.1-111.1,11.2-162.5-14.2c-67.1,30.9-133.6,30.6-200.2-0.8c-15.2,10.1-32.2,14.8-49.5,18.3
		c-23,4.6-46.1,6.5-69.7,4c-22-2.3-43.2-6.4-63.4-15.5c-5.8-2.6-11.8-5.2-18.4-3.9c-66.4,29.5-132.6,29.3-198.5-2
		c-65.9,30.5-131.8,30.3-198.3-0.3c-3.7,0.6-7.2,3.1-11,5c-7.8,4-16.1,7.1-24.7,9.2c-27.3,6.8-54.6,10.3-83,7.4
		c-23.2-2.5-45.5-7.2-67-16.3c-1.4-0.6-2.7-1.3-4-2.1l-9.3,15c-0.1,8.9-0.2,17.9-0.5,26.8c15.3,8.6,31.9,13.3,49,16.8
		c23.9,4.9,47.9,3.2,71.9,3.5c10.1,0.2,20.1-1.3,29.9-3.1c17.1-3.1,33.6-7.9,49.3-16.1c5.9,4.2,12.9,5.6,19.1,8.8
		c8.5,4.5,17.6,6.9,26.9,8.5c23.5,4.1,47.2,4.6,70.9,3.6c19.1-0.8,38.1-3.2,56.6-8.8c9.4-2.8,17.9-7.4,24.6-10
		c68.4,26,134.3,26.1,200.1,0.8c67,24.8,133.7,26.5,201.6-2c13.7,5.6,28.9,11.8,45.2,14.8c23.9,4.3,47.9,3.4,71.9,3.5
		c10.4,0.1,20.7-1.3,30.8-3.2c17.3-3.2,34.4-7.4,49.4-15.8c26.1,12.6,52.9,18.8,80.9,18.9c27.5,0.1,55.2,2.5,82.2-6.6
		C1361.3,1248.9,1361.9,1234.8,1360.7,1219.8z"/>
</g>
<g>
	<polygon class="st83" points="681.3,1131.4 599.7,1153.5 513.4,1107.3 357.5,1131.4 220.7,1199.8 200.7,1232 200.7,1246.1 
		928.4,1246.1 	"/>
</g>
<g>
	<polygon class="st84" points="681.3,1131.4 599.7,1153.5 513.4,1107.3 357.5,1131.4 220.7,1199.8 200.7,1232 200.7,1246.1 
		928.4,1246.1 	"/>
</g>
<rect x="199.2" y="1248" transform="matrix(0.8947 0.4466 -0.4466 0.8947 579.4631 40.9999)" width="7.1" height="3.4"/>
<g>
	<path d="M2185,1162.1c-5.4,0-5.6-0.2-3.8-5.8c0.8-2.6,0.4-4.2-2.3-4.8c-1.6-0.3-3-1.3-3.6-2.9c-0.8-1.8-2-1.9-3.5-1.9
		c-8.7,0-17.4-0.1-26.1-0.1c-4.9-0.1-4.9,0-4.9-5.3c0.1-2.7-0.9-3.1-3.1-3.1c-3.7,0.2-7.2,0.3-10.8,0c-3-0.3-3.5,1-3.5,3.8
		c0.1,11.3-0.3,23.3-0.3,34.6l-57.3,0.2c-0.1-0.3-0.2-0.6-0.1-1c0.4-4.6-2.1-4.6-5-4.4c-1.3,0.2-2.7,0.2-4,0.1
		c-3.7-0.2-4.3-1.1-4.1-4.6c0.2-3.4,0-7,0-10.4c0-1,0.3-2.4-0.9-2.6c-2.3-0.3-4.9,0.3-4.7-3.6c0-0.1-1.3-0.4-2-0.4
		c-3.3-0.1-6.6-0.2-10-0.1c-1.8,0-2.5-0.7-2.5-2.7c0.1-4.9-0.4-9.7,0-14.6c0.7-8.3-1.1-16.8,1.2-25.1c0.5-1.9-0.4-4.1,1.5-5.8
		c2.7-2.5,5.1-5.2,2.9-9.5c-0.2-0.5,0.1-1.2,0.2-1.9c0.2-2.1,2.9-3.9,1.5-5.8c-1.4-1.9-4.1-0.5-6.1-0.7c-1.8-0.2-3.1-0.4-1.8-2.7
		c1-1.7,0.7-3.5,0.6-5.2c-0.3-4-2.1-6-5.1-6c-3.5,0-6.1,2.7-6.4,6.4c-0.1,1.6-0.1,3.3,0,5c0.1,2.4-0.7,4.4-3.1,4.2
		c-2.1-0.2-3.4-1.8-3.2-4.3c0.2-2.5,0.4-4.9,0.6-7.2c0-0.8,0.2-1.6-0.5-2.1c-0.9-0.7-1.6,0.1-2.2,0.7c-1.7,1.6-3.4,3.2-5,4.9
		c-2.2,2.1-2.5,4.8-2.4,7.7c0.2,2.8,3,1,4.2,3.3c-7.8-0.5-15,0.7-22.4-0.8c-5-1-10.3-2.8-14.6,2.5c-1.2,1.4-3.1,1.3-4.8,1.3
		c-7.3,0-14.8,0-22.2,0c-1.6,0-3,0.1-2.6,2.4c0.5,2.7-0.8,3.1-3,3.1c-7.9-0.2-15.7-0.2-23.7,0c-2.9,0.1-3.6-0.9-3.6-3.8
		c0-4,0.8-8.4-1.2-12c-2.9-5.4-6.7-9.8-12.9-11.1c-1-0.3-2-0.6-1.8-1.8c0.7-3.5-0.6-6.2-2.5-9.1c-2.2-3.2-5.6-5.1-7.1-8.9
		c-0.3-0.7-2.3-0.8-3.4-0.7c-1.2,0.1-2.1-0.3-3-0.9c-0.6-0.5-1.2-1-1-1.9c0.2-1,1.1-0.8,1.8-0.8c1.8,0,3.6,0,5.3,0
		c1,0,2.3,0.3,2.2-1.6c0-1.9-1.3-1.4-2.3-1.4c-2.5-0.1-5-0.2-7.5,0c-2,0.1-2.5-0.8-2.4-2.7c0.1-4,0.1-7.9,0-11.9
		c0-1.8,0.6-2.5,2.3-2.4c2.9,0.1,5.7,0,8.6,0c1.1,0,2.2,0.1,2.1-1.7c-0.1-1.6-1.2-1.3-2.1-1.3c-2.9,0-5.7-0.1-8.6,0
		c-1.7,0.1-2.3-0.5-2.3-2.4c0.1-5.2,0.1-10.5,0-15.7c0-2,0.6-2.8,2.5-2.7c2.7,0.1,5.2,0,7.9,0c0.9,0,1.9,0.1,1.9-1.5
		c0-1.5-0.9-1.5-1.9-1.5c-2.7,0-5.3-0.1-7.9,0c-1.9,0.1-2.6-0.5-2.5-2.6c0.2-4.4,0.3-8.7,0-13.1c-0.2-3.6,0-6.5,4.2-7.1
		c0.8-0.1,1.7-0.3,1.6-1.6c-0.1-1.5-1.2-1.2-1.9-1c-3.2,0.9-4.4-1.1-4.5-3.9c-0.1-3.1-1.7-3-3.8-3.1c-2.3,0-3.6,0.5-3.7,3.3
		c-0.1,2.5-1.2,4.7-4.3,3.7c-0.4-0.1-0.9,0-1.4,0c-0.6,0-1.2,0-1.3,0.9c-0.1,0.7,0,1.2,0.7,1.5c1,0.5,2,1.1,3,1.2
		c2.3,0.2,2.8,1.4,2.8,3.5c-0.1,5.1-0.1,10.2,0,15.4c0.1,1.9-0.5,2.8-2.4,2.7c-2.5-0.2-5-0.1-7.5,0c-1,0.1-2.2-0.2-2.3,1.6
		c-0.1,1.9,1.2,1.6,2.2,1.6c2.5,0.1,5,0.2,7.5,0.1c1.9-0.1,2.6,0.5,2.6,2.6c-0.1,5.2-0.1,10.5,0,15.7c0,1.9-0.6,2.5-2.3,2.4
		c-2.9-0.1-5.7,0-8.6,0c-0.9,0-2-0.3-2.1,1.3c-0.1,1.8,1,1.7,2.1,1.7c2.9,0,5.7,0.1,8.6,0c1.8-0.1,2.3,0.6,2.3,2.4
		c-0.1,4-0.1,7.9,0,11.9c0.1,2-0.4,2.8-2.4,2.7c-2.5-0.2-5-0.1-7.5,0c-0.9,0-2.2-0.5-2.3,1.4s1.2,1.6,2.2,1.6c2.4,0.1,4.8,0,7.1,0.1
		c3,0.2,2.6,2.8,2.8,4.9c0.2,2.6-1.7,2-3,2c-2.3,0.1-4.6,0-6.8,0c-1.3,0-2.4,0.3-2.4,2.1c0,1.5,0.3,2.4,1.9,2.7
		c2.1,0.4,4.1,1.2,6.1,1.9c-3.5,1.6-7,0.5-10.4,1.9c3,0.7,5.1,3,7.9,4.1c2.5,1,3.4,3.1,2.8,5.9c-1.7,7.3-3.1,14.7-4.2,22.1
		c-0.6,4.3-2.1,5.6-6.2,5.6c-5.6,0-11.1-0.1-16.7,0v3.1h0c0,2.2-2,1.3-3.2,1.6c-4,0.9-5.1,2.3-5.2,6.8c-0.1,1.4-0.1,2.9-0.4,4.2
		c-2,9-4,17.9-1.2,27.2c0.6,1.9,0.1,4.3,0.3,6.4c0.4,4.5-2,5.7-5.1,6.1c-2.5,0.3-4.8,1-7,1.5c-3.9,1-4.6,0.3-4.9-3.8
		c-0.1-1.4-0.3-2.9-0.9-4.1c-1-2.1-2.5-2.1-4.1-0.6c-0.7,0.7-0.5,2.7-2.1,2c-1.2-0.5-1.2-2.1-1.5-3.3c-0.3-1.1-0.2-2.3-0.5-3.4
		c-0.3-1.2-2-2.2-2.2-1.5c-0.6,2.2-3.1,2.4-3.5,4.3c-0.8,3.5-4.4,4.6-5.9,7.4c-0.5,1-1.8,0.7-2.5-0.3c-1.1-1.6-2.3-3.3-2.6-5.4
		c-0.7-4.3-4-7-7.8-6.3c-0.9,0.2-1.3,0.9-0.8,1.6c1.9,2.9,1.5,6.1,1.9,9.3c0.3,2.1,0.7,4.1-1.5,4.9c-2.2,0.8-3.1-1.3-3.7-2.9
		c-1.3-3.4-3.9-5.2-6.3-7.1c-3.2-2.4-5.3-0.2-7.7,1.4c-2.4,1.6-3.1,3.7-2.4,6.6c0.9,4,0,5.3-3.8,5.3c-21.4,0.1-42.8,0-64.2,0.1
		c-2.2,0-2.6-0.8-2.6-2.9c0.1-7,0.2-13.8,0-20.8c-0.1-2.4,0.5-4.1,2.2-5.7c2.6-2.5,2.8-7.5,0.7-10.1c-3.8-4.7-7.7-5.7-11.2-3.1
		c-4.4,3.4-5.2,8.3-1.9,13.1c2.3,3.4,3.3,7,3.1,11.1c-0.1,4.4,0,8.7,0,13.1c0,5.2,0,5.3-4.9,5.2c-3.5-0.1-7.5,1.4-10.2-0.7
		c-4.9-3.6-10.7-6.5-13.7-12.6c-0.6-1-1.4-1.4-2.4-1.3c-2,0.2-2.6-1-3.2-2.8c-1.1-3.6-2.9-4.5-5.9-2.7c-5.2,3.1-10.9,3.6-16.5,3.7
		c-13.4,0.3-26.7,0-40.1,0c-2.5,0-13.3,7.6-14.2,10c-0.2,0.4-0.2,0.8-0.2,1.1c0.5,6.7-1,13.3-1.3,19.8c0,0.3,0,0.6-0.1,0.9l-15.2,0
		c0-0.5,0-0.9,0-1.3c0-1.1,0-2.7-1.5-2.6c-3,0.1-2.8-2-2.8-4.1c0-1.6-0.1-3.3,0-5c0.2-2-0.5-2.7-2.4-2.7c-5.6,0.1-11.2,0.2-16.8,0
		c-2.5-0.1-4,0.8-5.1,3.1c-3.8,7.3-7.7,14.6-11.6,21.9c-1.4,2.6-3.3,3.7-6.1,3.6c-5.3-0.2-10.8-0.1-16.1-0.1c-3.5,0.1-5.5,3.1-5,6.7
		c0.5,3.3,1.5,6.3,2.7,9.3l12.2,37l7.3-2.4l10.6,22.1l0,10.7l648.5,0.2l15.1-16.9l8.6-9.5l16-17.8l29.5-32.7l26.8-29.7
		c0.1-0.4,0.2-0.9,0.3-1.4c0-0.8,0-1.5,0-2.3C2236.4,1162.1,2210.6,1162.1,2185,1162.1z"/>
	<polygon class="st12" points="1710.6,1341.9 1616.3,1445.4 1710.6,1548.9 1916.1,1548.9 2102.8,1341.9 	"/>
</g>
<g>
	<g>
		<defs>
			<polyline id="SVGID_156_" points="-798.6,-756.7 3232.7,-756.7 3232.7,2266.6 -798.6,2266.6 			"/>
		</defs>
		<clipPath id="SVGID_157_">
			<use xlink:href="#SVGID_156_"  style="overflow:visible;"/>
		</clipPath>
		<polygon class="st85" points="202.2,1225.7 948.7,1226.6 920.4,1245.8 202.2,1242.7 		"/>
	</g>
</g>
</svg>
